<?xml version="1.0" encoding="UTF-8" standalone="no" ?>
<!DOCTYPE svg PUBLIC "-//W3C//DTD SVG 1.1//EN" "http://www.w3.org/Graphics/SVG/1.1/DTD/svg11.dtd">
<svg xmlns="http://www.w3.org/2000/svg" xmlns:xlink="http://www.w3.org/1999/xlink" version="1.1" width="109" height="120" viewBox="0 0 109 120" xml:space="preserve">
<desc>Created with Fabric.js 4.6.0</desc>
<defs>
</defs>
<g transform="matrix(-1.2 0 0 1.02 61.37 31.82)" id="r_nEBa9MS17Dsp04SyxRO"  >
<path style="stroke: rgb(0,0,0); stroke-width: 0; stroke-dasharray: none; stroke-linecap: butt; stroke-dashoffset: 0; stroke-linejoin: miter; stroke-miterlimit: 4; fill: rgb(158,193,193); fill-rule: nonzero; opacity: 1;" vector-effect="non-scaling-stroke"  transform=" translate(0, 0)" d="M 37.58808 -8.92805 L -33.15388000000001 -9.39081 L -37.58807000000001 -11.76861 L -37.58807000000001 11.76861 L -33.15388000000001 -4.898059999999999 C -33.15388000000001 -4.898059999999999 16.065459999999995 -12.086579999999998 18.964009999999995 5.88443 C 18.964009999999995 6.17429 37.58807999999999 -8.92806 37.58807999999999 -8.92806 z" stroke-linecap="round" />
</g>
<g transform="matrix(0 -0.99 -1.01 0 33.18 82.62)" id="xSZplLlK5Mxa5E2PpE0u3"  >
<path style="stroke: rgb(0,0,0); stroke-width: 0; stroke-dasharray: none; stroke-linecap: butt; stroke-dashoffset: 0; stroke-linejoin: miter; stroke-miterlimit: 4; fill: rgb(158,193,193); fill-rule: nonzero; opacity: 1;" vector-effect="non-scaling-stroke"  transform=" translate(0, 0)" d="M -31.71142 26.14366 L 5.2361400000000025 -26.143669999999997 L 11.097080000000002 -8.628219999999995 L 31.71142 20.676480000000005 C 31.71142 20.676480000000005 13.7244 24.112200000000005 7.4592600000000004 17.308120000000006 C 1.1941200000000007 10.504040000000007 -13.41959 13.560460000000006 -13.41959 13.560460000000006 z" stroke-linecap="round" />
</g>
<g transform="matrix(-2.9 0 0 0.41 36.87 63.31)" id="ffUlAbgTc1hZS0P217vwE"  >
<path style="stroke: rgb(0,0,0); stroke-width: 0; stroke-dasharray: none; stroke-linecap: butt; stroke-dashoffset: 0; stroke-linejoin: miter; stroke-miterlimit: 4; fill: rgb(0,0,0); fill-rule: nonzero; opacity: 1;" vector-effect="non-scaling-stroke"  transform=" translate(0, 0)" d="M -9.34609 33.05073 C -9.2666 32.50468 5.428979999999999 7.480070000000001 5.56814 -36.90781 C 5.674849999999999 -70.94632 -5.754050000000001 -113.19941 -12.59863 -136.15454 L -12.59863 -136.15454 C -12.66861 -136.38925 -12.69919 -136.97686 -12.66741 -137.47648 C -12.63563 -137.97609 -12.55319 -138.20408 -12.48193 -137.98937 C -4.68178 -114.48626000000002 8.76346 -70.60403000000001 8.86896 -36.907820000000015 C 9.00323 5.9784099999999825 -6.35928 34.07714999999999 -6.35928 34.07714999999999 L 5.79871 96.27213999999998 L 5.79871 96.27213999999998 C 5.91512 96.86765999999997 6.07618 96.75067999999997 6.17305 96.00024999999998 C 6.26992 95.24981999999999 6.27179 94.10473999999998 6.17738 93.33872999999998 L 2.7635300000000003 65.63833999999999 L 2.7635300000000003 65.63833999999999 C 2.00327 59.46808999999998 1.7619700000000003 50.91110999999999 2.12936 43.14992999999998 C 2.49675 35.38874999999998 3.41787 29.584699999999984 4.55013 27.896419999999985 C 6.12899 25.542229999999986 7.43574 23.186519999999984 9.2483 18.314229999999984 C 8.832840000000001 19.492989999999985 8.14934 23.823479999999982 7.80168 25.933199999999985 C 3.58444 51.52503999999999 12.67998 138.07009 12.67998 138.07009 C 12.67998 138.07009 -6.44509 56.66150999999999 -9.34608 33.05072 z" stroke-linecap="round" />
</g>
<g transform="matrix(0 -1 -1 0 22.01 69.58)" id="LD5hxTJyFSIseFaYNMFoE"  >
<path style="stroke: rgb(188,98,107); stroke-width: 0; stroke-dasharray: none; stroke-linecap: butt; stroke-dashoffset: 0; stroke-linejoin: miter; stroke-miterlimit: 4; fill: rgb(0,0,0); fill-rule: nonzero; opacity: 1;" vector-effect="non-scaling-stroke"  transform=" translate(-3.5, -3.5)" d="M 3.5 0 C 5.432 0 7 1.568 7 3.5 C 7 5.432 5.432 7 3.5 7 C 1.568 7 0 5.432 0 3.5 C 0 1.568 1.568 0 3.5 0 z" stroke-linecap="round" />
</g>
<g transform="matrix(0 -0.71 -0.71 0 34.01 74.58)" id="rBGDgu7RSORwvhJ-7Z4P1"  >
<path style="stroke: rgb(188,98,107); stroke-width: 0; stroke-dasharray: none; stroke-linecap: butt; stroke-dashoffset: 0; stroke-linejoin: miter; stroke-miterlimit: 4; fill: rgb(0,0,0); fill-rule: nonzero; opacity: 1;" vector-effect="non-scaling-stroke"  transform=" translate(0, 0)" d="M 0 -3.5 C 1.932 -3.5 3.5 -1.932 3.5 0 C 3.5 1.932 1.932 3.5 0 3.5 C -1.932 3.5 -3.5 1.932 -3.5 0 C -3.5 -1.932 -1.932 -3.5 0 -3.5 z" stroke-linecap="round" />
</g>
<g transform="matrix(0 -0.99 -1 0 41.28 86.57)" id="soiZbakc5X0zau2Y-T7Gk"  >
<path style="stroke: rgb(0,0,0); stroke-width: 0; stroke-dasharray: none; stroke-linecap: butt; stroke-dashoffset: 0; stroke-linejoin: miter; stroke-miterlimit: 4; fill: rgb(0,0,0); fill-rule: nonzero; opacity: 1;" vector-effect="non-scaling-stroke"  transform=" translate(0, 0)" d="M -10.35842 16.73506 C -10.50352 16.865650000000002 -10.724960000000001 16.86614 -10.870650000000001 16.73619 C -11.016340000000001 16.60625 -11.038860000000001 16.38815 -10.92275 16.23171 L 4.94407 -5.1469200000000015 C 4.94407 -5.1469200000000015 -2.12948 -4.877450000000001 -3.4094499999999996 -12.085730000000002 C -3.4094499999999996 -12.153100000000002 0.3805500000000004 -16.190710000000003 1.0939000000000005 -16.83332 C 1.1612700000000005 -16.76595 0.8918000000000006 -7.4019200000000005 9.986360000000001 -8.6819 C 10.12109 -8.547170000000001 10.996870000000001 -2.4841200000000008 10.996870000000001 -2.4841200000000008 z" stroke-linecap="round" />
</g>
<g transform="matrix(-1.01 0 0 1 86.27 76.64)" id="wwB8XZaE36qXPn8ezPyTk"  >
<path style="stroke: rgb(0,0,0); stroke-width: 0; stroke-dasharray: none; stroke-linecap: butt; stroke-dashoffset: 0; stroke-linejoin: miter; stroke-miterlimit: 4; fill: rgb(0,0,0); fill-rule: nonzero; opacity: 1;" vector-effect="non-scaling-stroke"  transform=" translate(0, 0)" d="M -20.07125 9.8297 C -20.07125 9.8297 -9.359879999999999 3.429820000000001 -3.83577 14.208560000000002 C -3.9705 14.141190000000002 20.07125 0.19620000000000282 20.07125 0.19620000000000282 C 20.07125 0.19620000000000282 -10.602800000000002 0.3450100000000028 -14.29204 0.19620000000000282 C -19.0421 -2.333559999999997 -20.07125 -14.208559999999997 -20.07125 -14.208559999999997 z" stroke-linecap="round" />
</g>
<g transform="matrix(0 -2.85 0.41 0 -33.82 27.95)" id="_GU7GpyqY5Q5Tvs-SaHqh"  >
<path style="stroke: rgb(0,0,0); stroke-width: 0; stroke-dasharray: none; stroke-linecap: butt; stroke-dashoffset: 0; stroke-linejoin: miter; stroke-miterlimit: 4; fill: rgb(0,0,0); fill-rule: nonzero; opacity: 1;" vector-effect="non-scaling-stroke"  transform=" translate(0, 0)" d="M -9.10792 64.88303 C -9.02843 64.33698000000001 5.6671499999999995 39.31237 5.80631 -5.075509999999994 C 5.89667 -33.90015 0.4525199999999998 -53.184099999999994 -3.383000000000001 -62.62882 L -3.383000000000001 -62.62882 C -3.4769900000000007 -62.86026 -3.527580000000001 -63.574949999999994 -3.497080000000001 -64.24025 C -3.466580000000001 -64.90555 -3.366080000000001 -65.2792 -3.270490000000001 -65.08273 C 1.4941099999999987 -55.28977 9.01442 -34.68304 9.10712 -5.075510000000001 C 9.24139 37.810719999999996 -7.562980000000001 68.23391000000001 -9.107919999999998 64.88302999999999 z" stroke-linecap="round" />
</g>
<g transform="matrix(1.02 0 0 1 -21.32 25.45)" id="ySBQ6LcsZvYjCJy1ll8d9"  >
<path style="stroke: rgb(0,0,0); stroke-width: 0; stroke-dasharray: none; stroke-linecap: butt; stroke-dashoffset: 0; stroke-linejoin: miter; stroke-miterlimit: 4; fill: rgb(0,0,0); fill-rule: nonzero; opacity: 1;" vector-effect="non-scaling-stroke"  transform=" translate(0, 0)" d="M -11.25566 -17.98643 L 3.902709999999999 -14.027149999999999 L 11.25565 -6.108599999999999 C 11.25565 -6.108599999999999 6.278269999999999 3.3936600000000006 11.25565 17.986420000000003 C 1.2925499999999985 -8.098699999999997 -11.255660000000002 -17.98643 -11.255660000000002 -17.98643 z" stroke-linecap="round" />
</g>
<g transform="matrix(0.71 0 0 0.71 97.16 31.82)" id="bP0MAMz4eWiNrkuoRn2ub"  >
<path style="stroke: rgb(188,98,107); stroke-width: 0; stroke-dasharray: none; stroke-linecap: butt; stroke-dashoffset: 0; stroke-linejoin: miter; stroke-miterlimit: 4; fill: rgb(0,0,0); fill-rule: nonzero; opacity: 1;" vector-effect="non-scaling-stroke"  transform=" translate(0, 0)" d="M 0 -3.5 C 1.932 -3.5 3.5 -1.932 3.5 0 C 3.5 1.932 1.932 3.5 0 3.5 C -1.932 3.5 -3.5 1.932 -3.5 0 C -3.5 -1.932 -1.932 -3.5 0 -3.5 z" stroke-linecap="round" />
</g>
<g transform="matrix(1.01 0 0 0.98 -68.23 57.23)" id="t4LOgBzeENzwptThZB4ww"  >
<path style="stroke: rgb(0,0,0); stroke-width: 0; stroke-dasharray: none; stroke-linecap: butt; stroke-dashoffset: 0; stroke-linejoin: miter; stroke-miterlimit: 4; fill: rgb(91,91,91); fill-rule: nonzero; opacity: 1;" vector-effect="non-scaling-stroke"  transform=" translate(0, 0)" d="M -31.82232 4.95519 C -31.82232 4.95519 -19.75667 14.81026 -19.17696 -13.595529999999998 C -19.17696 -13.885389999999997 31.82231 -13.595529999999998 31.82231 -13.595529999999998 C 31.82231 -13.595529999999998 18.254420000000003 -7.978649999999998 12.323040000000002 13.724360000000003 C 12.178110000000002 13.724360000000003 10.206660000000003 6.549400000000003 10.206660000000003 6.549400000000003 C 10.206660000000003 6.549400000000003 15.424050000000003 -5.465029999999998 21.22115 -9.812859999999997 C 21.36608 -9.957789999999997 9.81192 -11.569099999999997 -16.749859999999998 -11.276689999999997 C -20.223259999999996 19.99884 -31.822319999999998 4.9551900000000035 -31.822319999999998 4.9551900000000035 z" stroke-linecap="round" />
</g>
<g transform="matrix(0 -1 -0.99 0 31.26 48.16)" id="eE4Hal9XAnTNcDn1HAirx"  >
<path style="stroke: rgb(0,0,0); stroke-width: 0; stroke-dasharray: none; stroke-linecap: butt; stroke-dashoffset: 0; stroke-linejoin: miter; stroke-miterlimit: 4; fill: rgb(91,91,91); fill-rule: nonzero; opacity: 1;" vector-effect="non-scaling-stroke"  transform=" translate(0, 0)" d="M -23.07217 -19.96132 C -23.14941 -20.00141 -6.896650000000001 30.81167 14.11262 0.22465000000000046 C 14.11262 0.22465000000000046 17.71715 6.96135 17.71715 6.96135 C 17.71715 6.96135 8.26345 17.386680000000002 19.07705 19.96135 C 18.97406 19.96135 9.99316 14.4368 23.07246 3.726189999999999 C 22.96947 3.623199999999999 14.627559999999999 5.6829399999999985 16.06937 -7.190390000000001 C 14.83353 -6.057540000000001 1.5158899999999988 31.98402 -23.072160000000004 -19.96132 z" stroke-linecap="round" />
</g>
<g transform="matrix(0.86 0 0 0.86 14.51 28.81)" id="nH4HauPfAsmvRyievuUGA"  >
<path style="stroke: rgb(188,98,107); stroke-width: 0; stroke-dasharray: none; stroke-linecap: butt; stroke-dashoffset: 0; stroke-linejoin: miter; stroke-miterlimit: 4; fill: rgb(91,91,91); fill-rule: nonzero; opacity: 1;" vector-effect="non-scaling-stroke"  transform=" translate(0, 0)" d="M 0 -3.5 C 1.932 -3.5 3.5 -1.932 3.5 0 C 3.5 1.932 1.932 3.5 0 3.5 C -1.932 3.5 -3.5 1.932 -3.5 0 C -3.5 -1.932 -1.932 -3.5 0 -3.5 z" stroke-linecap="round" />
</g>
<g transform="matrix(-0.68 0.7 -0.73 -0.7 -55.62 90.1)" id="kBbn4CqR-JueUHwtXUsE5"  >
<path style="stroke: rgb(0,0,0); stroke-width: 0; stroke-dasharray: none; stroke-linecap: butt; stroke-dashoffset: 0; stroke-linejoin: miter; stroke-miterlimit: 4; fill: rgb(91,91,91); fill-rule: nonzero; opacity: 1;" vector-effect="non-scaling-stroke"  transform=" translate(0, 0)" d="M -4.14909 -15.64309 L 6.3417699999999995 -4.782530000000001 C 6.3417699999999995 -4.782530000000001 2.285939999999999 -1.973660000000001 7.79611 16.4291 C 6.7829999999999995 14.588129999999998 1.68905 4.372669999999998 3.2981 -4.3281600000000005 C 3.2981 -4.626130000000001 2.8748799999999997 -10.78311 -5.825950000000001 -12.21338 C -5.647170000000001 -12.45176 -8.08244 -12.36274 -7.76806 -16.429100000000002 C -6.212540000000001 -16.190720000000002 -4.14909 -15.643090000000003 -4.14909 -15.643090000000003 z" stroke-linecap="round" />
</g>
<g transform="matrix(-0.45 0.47 -0.47 -0.45 68.65 13.29)" id="BC1V8pql9oziuqCyCHuwZ"  >
<path style="stroke: rgb(188,98,107); stroke-width: 0; stroke-dasharray: none; stroke-linecap: butt; stroke-dashoffset: 0; stroke-linejoin: miter; stroke-miterlimit: 4; fill: rgb(91,91,91); fill-rule: nonzero; opacity: 1;" vector-effect="non-scaling-stroke"  transform=" translate(0, 0)" d="M 0 -3.5 C 1.932 -3.5 3.5 -1.932 3.5 0 C 3.5 1.932 1.932 3.5 0 3.5 C -1.932 3.5 -3.5 1.932 -3.5 0 C -3.5 -1.932 -1.932 -3.5 0 -3.5 z" stroke-linecap="round" />
</g>
<g transform="matrix(-0.24 0.25 -0.25 -0.24 73.59 10.88)" id="EY1LWF6rXPINnuXxdZBLg"  >
<path style="stroke: rgb(188,98,107); stroke-width: 0; stroke-dasharray: none; stroke-linecap: butt; stroke-dashoffset: 0; stroke-linejoin: miter; stroke-miterlimit: 4; fill: rgb(91,91,91); fill-rule: nonzero; opacity: 1;" vector-effect="non-scaling-stroke"  transform=" translate(0, 0)" d="M 0 -3.5 C 1.932 -3.5 3.5 -1.932 3.5 0 C 3.5 1.932 1.932 3.5 0 3.5 C -1.932 3.5 -3.5 1.932 -3.5 0 C -3.5 -1.932 -1.932 -3.5 0 -3.5 z" stroke-linecap="round" />
</g>
<g transform="matrix(1 0 0 1 -93 7.28)" id="raTz5Tw2b1RIBAGPfORg0"  >
<path style="stroke: rgb(0,0,0); stroke-width: 0; stroke-dasharray: none; stroke-linecap: butt; stroke-dashoffset: 0; stroke-linejoin: miter; stroke-miterlimit: 4; fill: rgb(158,193,193); fill-rule: nonzero; opacity: 1;" vector-effect="non-scaling-stroke"  transform=" translate(0, 0)" d="M -0.72791 -1.86851 L 1.96121 -1.86851 L 1.5161499999999999 1.7386900000000003 L -1.9612200000000002 1.8685100000000003 z" stroke-linecap="round" />
</g>
<g transform="matrix(-1 0 0 1 85.47 74.24)" id="Gt5gslNu9u22PthGfk6o9"  >
<path style="stroke: rgb(0,0,0); stroke-width: 0; stroke-dasharray: none; stroke-linecap: butt; stroke-dashoffset: 0; stroke-linejoin: miter; stroke-miterlimit: 4; fill: rgb(91,91,91); fill-rule: nonzero; opacity: 1;" vector-effect="non-scaling-stroke"  transform=" translate(0, 0)" d="M 19.47557 1.43544 L 23.44703 -4.66803 L 17.72606 0.3319700000000001 L -23.44703 0.02518000000000009 L -23.44703 4.6680399999999995 L -21.661320000000003 1.3347099999999994 z" stroke-linecap="round" />
</g>
<g transform="matrix(-0.35 0 0 0.35 100.87 92.56)" id="6INJ-otS7-2oqJcrvLNLI"  >
<path style="stroke: rgb(188,98,107); stroke-width: 0; stroke-dasharray: none; stroke-linecap: butt; stroke-dashoffset: 0; stroke-linejoin: miter; stroke-miterlimit: 4; fill: rgb(91,91,91); fill-rule: nonzero; opacity: 1;" vector-effect="non-scaling-stroke"  transform=" translate(0, 0)" d="M 0 -3.5 C 1.932 -3.5 3.5 -1.932 3.5 0 C 3.5 1.932 1.932 3.5 0 3.5 C -1.932 3.5 -3.5 1.932 -3.5 0 C -3.5 -1.932 -1.932 -3.5 0 -3.5 z" stroke-linecap="round" />
</g>
</svg>