<?xml version="1.0" encoding="UTF-8" standalone="no" ?>
<!DOCTYPE svg PUBLIC "-//W3C//DTD SVG 1.1//EN" "http://www.w3.org/Graphics/SVG/1.1/DTD/svg11.dtd">
<svg xmlns="http://www.w3.org/2000/svg" xmlns:xlink="http://www.w3.org/1999/xlink" version="1.1" width="109" height="120" viewBox="0 0 109 120" xml:space="preserve">
<desc>Created with Fabric.js 4.6.0</desc>
<defs>
</defs>
<g transform="matrix(-1.2 0 0 -1.02 -76.95 -23.54)" id="r_nEBa9MS17Dsp04SyxRO"  >
<path style="stroke: rgb(0,0,0); stroke-width: 0; stroke-dasharray: none; stroke-linecap: butt; stroke-dashoffset: 0; stroke-linejoin: miter; stroke-miterlimit: 4; fill: rgb(158,193,193); fill-rule: nonzero; opacity: 1;" vector-effect="non-scaling-stroke"  transform=" translate(0, 0)" d="M 37.58808 -8.92805 L -33.15388000000001 -9.39081 L -37.58807000000001 -11.76861 L -37.58807000000001 11.76861 L -33.15388000000001 -4.898059999999999 C -33.15388000000001 -4.898059999999999 16.065459999999995 -12.086579999999998 18.964009999999995 5.88443 C 18.964009999999995 6.17429 37.58807999999999 -8.92806 37.58807999999999 -8.92806 z" stroke-linecap="round" />
</g>
<g transform="matrix(0 0.99 1.01 0 76.05 33.98)" id="xSZplLlK5Mxa5E2PpE0u3"  >
<path style="stroke: rgb(0,0,0); stroke-width: 0; stroke-dasharray: none; stroke-linecap: butt; stroke-dashoffset: 0; stroke-linejoin: miter; stroke-miterlimit: 4; fill: rgb(158,193,193); fill-rule: nonzero; opacity: 1;" vector-effect="non-scaling-stroke"  transform=" translate(0, 0)" d="M -24.49034 25.93557 L 12.457220000000003 -26.35176 L 23.158010000000004 3.5497900000000016 L 24.490330000000004 21.71442 C 24.490330000000004 21.71442 13.811270000000004 38.41189 6.274450000000005 8.43853 C -5.014169999999995 2.36899 -24.490349999999996 25.93556 -24.490349999999996 25.93556 z" stroke-linecap="round" />
</g>
<g transform="matrix(2.9 0 0 -0.41 76.98 35.1)" id="ffUlAbgTc1hZS0P217vwE"  >
<path style="stroke: rgb(0,0,0); stroke-width: 0; stroke-dasharray: none; stroke-linecap: butt; stroke-dashoffset: 0; stroke-linejoin: miter; stroke-miterlimit: 4; fill: rgb(0,0,0); fill-rule: nonzero; opacity: 1;" vector-effect="non-scaling-stroke"  transform=" translate(0, 0)" d="M -11.01303 -28.76044 C -10.93354 -29.30649 9.77711 -86.18028 10.44839 -74.73855999999999 C 10.64862 -71.32569 10.582419999999999 -71.47523 10.56605 -69.83945999999999 L 10.56605 -69.83945999999999 C 10.49408 -62.64622999999999 9.84749 -56.375889999999984 8.901110000000001 -53.69376999999999 C 8.04747 -51.27446999999999 8.711 -51.96165999999999 6.134710000000001 -51.31780999999999 C 2.0500300000000014 -50.29698999999999 -8.026249999999997 -27.734009999999987 -8.026249999999997 -27.734009999999987 L 4.131740000000002 34.460980000000006 L 4.131740000000002 34.460980000000006 C 4.2481500000000025 35.05650000000001 4.4092100000000025 34.93952000000001 4.5060800000000025 34.18909000000001 C 4.6029500000000025 33.438660000000006 4.604820000000003 32.293580000000006 4.510410000000003 31.527570000000008 L 1.4275400000000027 6.5128200000000085 L 1.4275400000000027 6.5128200000000085 C 0.8332700000000027 1.6878000000000082 0.7273000000000027 -5.246109999999991 1.1620700000000026 -10.85790999999999 C 1.5968400000000025 -16.46970999999999 2.4801300000000026 -19.56925999999999 3.3748900000000024 -18.62283999999999 C 5.1451100000000025 -16.75041999999999 6.937090000000002 -16.67199999999999 8.782130000000002 -21.63158999999999 C 8.366670000000003 -20.452829999999988 6.482360000000002 -10.296329999999989 6.134710000000002 -8.18660999999999 C 1.9174700000000016 17.40523000000001 11.013010000000001 76.25893 11.013010000000001 76.25893 C 11.013010000000001 76.25893 -8.11206 -5.149649999999994 -11.01305 -28.76043999999999 z" stroke-linecap="round" />
</g>
<g transform="matrix(0 1 1 0 89.28 51.57)" id="LD5hxTJyFSIseFaYNMFoE"  >
<path style="stroke: rgb(188,98,107); stroke-width: 0; stroke-dasharray: none; stroke-linecap: butt; stroke-dashoffset: 0; stroke-linejoin: miter; stroke-miterlimit: 4; fill: rgb(0,0,0); fill-rule: nonzero; opacity: 1;" vector-effect="non-scaling-stroke"  transform=" translate(-3.5, -3.5)" d="M 3.5 0 C 5.432 0 7 1.568 7 3.5 C 7 5.432 5.432 7 3.5 7 C 1.568 7 0 5.432 0 3.5 C 0 1.568 1.568 0 3.5 0 z" stroke-linecap="round" />
</g>
<g transform="matrix(0 0.71 0.71 0 77.15 47.44)" id="rBGDgu7RSORwvhJ-7Z4P1"  >
<path style="stroke: rgb(188,98,107); stroke-width: 0; stroke-dasharray: none; stroke-linecap: butt; stroke-dashoffset: 0; stroke-linejoin: miter; stroke-miterlimit: 4; fill: rgb(0,0,0); fill-rule: nonzero; opacity: 1;" vector-effect="non-scaling-stroke"  transform=" translate(0, 0)" d="M 0 -3.5 C 1.932 -3.5 3.5 -1.932 3.5 0 C 3.5 1.932 1.932 3.5 0 3.5 C -1.932 3.5 -3.5 1.932 -3.5 0 C -3.5 -1.932 -1.932 -3.5 0 -3.5 z" stroke-linecap="round" />
</g>
<g transform="matrix(0 0.99 1 0 67.74 37.18)" id="soiZbakc5X0zau2Y-T7Gk"  >
<path style="stroke: rgb(0,0,0); stroke-width: 0; stroke-dasharray: none; stroke-linecap: butt; stroke-dashoffset: 0; stroke-linejoin: miter; stroke-miterlimit: 4; fill: rgb(0,0,0); fill-rule: nonzero; opacity: 1;" vector-effect="non-scaling-stroke"  transform=" translate(0, 0)" d="M -10.35842 16.73506 C -10.50352 16.865650000000002 -10.724960000000001 16.86614 -10.870650000000001 16.73619 C -11.016340000000001 16.60625 -11.038860000000001 16.38815 -10.92275 16.23171 L 4.94407 -5.1469200000000015 C 4.94407 -5.1469200000000015 -2.12948 -4.877450000000001 -3.4094499999999996 -12.085730000000002 C -3.4094499999999996 -12.153100000000002 0.3805500000000004 -16.190710000000003 1.0939000000000005 -16.83332 C 1.1612700000000005 -16.76595 0.8918000000000006 -7.4019200000000005 9.986360000000001 -8.6819 C 10.12109 -8.547170000000001 10.996870000000001 -2.4841200000000008 10.996870000000001 -2.4841200000000008 z" stroke-linecap="round" />
</g>
<g transform="matrix(1.01 0 0 1 -82.65 63.39)" id="wwB8XZaE36qXPn8ezPyTk"  >
<path style="stroke: rgb(0,0,0); stroke-width: 0; stroke-dasharray: none; stroke-linecap: butt; stroke-dashoffset: 0; stroke-linejoin: miter; stroke-miterlimit: 4; fill: rgb(0,0,0); fill-rule: nonzero; opacity: 1;" vector-effect="non-scaling-stroke"  transform=" translate(0, 0)" d="M -20.07125 9.8297 C -20.07125 9.8297 -9.359879999999999 3.429820000000001 -3.83577 14.208560000000002 C -3.9705 14.141190000000002 20.07125 0.19620000000000282 20.07125 0.19620000000000282 C 20.07125 0.19620000000000282 -10.602800000000002 0.3450100000000028 -14.29204 0.19620000000000282 C -19.0421 -2.333559999999997 -20.07125 -14.208559999999997 -20.07125 -14.208559999999997 z" stroke-linecap="round" />
</g>
<g transform="matrix(0 -2.85 0.41 0 -62.45 28.48)" id="_GU7GpyqY5Q5Tvs-SaHqh"  >
<path style="stroke: rgb(0,0,0); stroke-width: 0; stroke-dasharray: none; stroke-linecap: butt; stroke-dashoffset: 0; stroke-linejoin: miter; stroke-miterlimit: 4; fill: rgb(0,0,0); fill-rule: nonzero; opacity: 1;" vector-effect="non-scaling-stroke"  transform=" translate(0, 0)" d="M -9.10792 64.88303 C -9.02843 64.33698000000001 5.6671499999999995 39.31237 5.80631 -5.075509999999994 C 5.89667 -33.90015 0.4525199999999998 -53.184099999999994 -3.383000000000001 -62.62882 L -3.383000000000001 -62.62882 C -3.4769900000000007 -62.86026 -3.527580000000001 -63.574949999999994 -3.497080000000001 -64.24025 C -3.466580000000001 -64.90555 -3.366080000000001 -65.2792 -3.270490000000001 -65.08273 C 1.4941099999999987 -55.28977 9.01442 -34.68304 9.10712 -5.075510000000001 C 9.24139 37.810719999999996 -7.562980000000001 68.23391000000001 -9.107919999999998 64.88302999999999 z" stroke-linecap="round" />
</g>
<g transform="matrix(1.02 0 0 1 -49.95 25.98)" id="ySBQ6LcsZvYjCJy1ll8d9"  >
<path style="stroke: rgb(0,0,0); stroke-width: 0; stroke-dasharray: none; stroke-linecap: butt; stroke-dashoffset: 0; stroke-linejoin: miter; stroke-miterlimit: 4; fill: rgb(0,0,0); fill-rule: nonzero; opacity: 1;" vector-effect="non-scaling-stroke"  transform=" translate(0, 0)" d="M -11.25566 -17.98643 L 3.902709999999999 -14.027149999999999 L 11.25565 -6.108599999999999 C 11.25565 -6.108599999999999 6.278269999999999 3.3936600000000006 11.25565 17.986420000000003 C 1.2925499999999985 -8.098699999999997 -11.255660000000002 -17.98643 -11.255660000000002 -17.98643 z" stroke-linecap="round" />
</g>
<g transform="matrix(-0.71 0 0 0.71 -38.47 8.12)" id="bP0MAMz4eWiNrkuoRn2ub"  >
<path style="stroke: rgb(188,98,107); stroke-width: 0; stroke-dasharray: none; stroke-linecap: butt; stroke-dashoffset: 0; stroke-linejoin: miter; stroke-miterlimit: 4; fill: rgb(0,0,0); fill-rule: nonzero; opacity: 1;" vector-effect="non-scaling-stroke"  transform=" translate(0, 0)" d="M 0 -3.5 C 1.932 -3.5 3.5 -1.932 3.5 0 C 3.5 1.932 1.932 3.5 0 3.5 C -1.932 3.5 -3.5 1.932 -3.5 0 C -3.5 -1.932 -1.932 -3.5 0 -3.5 z" stroke-linecap="round" />
</g>
<g transform="matrix(1.01 0 0 -0.98 -86.16 48.16)" id="t4LOgBzeENzwptThZB4ww"  >
<path style="stroke: rgb(0,0,0); stroke-width: 0; stroke-dasharray: none; stroke-linecap: butt; stroke-dashoffset: 0; stroke-linejoin: miter; stroke-miterlimit: 4; fill: rgb(91,91,91); fill-rule: nonzero; opacity: 1;" vector-effect="non-scaling-stroke"  transform=" translate(0, 0)" d="M -31.82232 4.95519 C -31.82232 4.95519 -19.75667 14.81026 -19.17696 -13.595529999999998 C -19.17696 -13.885389999999997 31.82231 -13.595529999999998 31.82231 -13.595529999999998 C 31.82231 -13.595529999999998 18.254420000000003 -7.978649999999998 12.323040000000002 13.724360000000003 C 12.178110000000002 13.724360000000003 10.206660000000003 6.549400000000003 10.206660000000003 6.549400000000003 C 10.206660000000003 6.549400000000003 15.424050000000003 -5.465029999999998 21.22115 -9.812859999999997 C 21.36608 -9.957789999999997 9.81192 -11.569099999999997 -16.749859999999998 -11.276689999999997 C -20.223259999999996 19.99884 -31.822319999999998 4.9551900000000035 -31.822319999999998 4.9551900000000035 z" stroke-linecap="round" />
</g>
<g transform="matrix(0 1 0.99 0 -110.97 8.12)" id="eE4Hal9XAnTNcDn1HAirx"  >
<path style="stroke: rgb(0,0,0); stroke-width: 0; stroke-dasharray: none; stroke-linecap: butt; stroke-dashoffset: 0; stroke-linejoin: miter; stroke-miterlimit: 4; fill: rgb(91,91,91); fill-rule: nonzero; opacity: 1;" vector-effect="non-scaling-stroke"  transform=" translate(0, 0)" d="M -27.38832 -27.77853 C -27.37156 -28.01456 -24.39418 -31.69668 -24.37637 -31.93487 C -24.352120000000003 -32.25919 -27.73744 -29.66051 -27.71122 -29.98886 C -27.78846 -30.02895 -40.48597 12.27524 -9.30639 26.153969999999997 C -4.1595 27.34135 6.35867 24.93153 6.35867 24.93153 C 6.35867 24.93153 11.28192 26.11073 8.00839 31.96191 C 7.9054 31.96191 21.795920000000002 32.18386 30.333979999999997 26.15398 C 30.23099 26.050990000000002 8.339109999999998 34.57825 9.780929999999998 21.70492 C 4.511389999999998 19.02205 -32.11188 38.75787 -27.388330000000003 -27.778529999999996 z" stroke-linecap="round" />
</g>
<g transform="matrix(-0.86 0 0 -0.86 4.58 49.93)" id="nH4HauPfAsmvRyievuUGA"  >
<path style="stroke: rgb(188,98,107); stroke-width: 0; stroke-dasharray: none; stroke-linecap: butt; stroke-dashoffset: 0; stroke-linejoin: miter; stroke-miterlimit: 4; fill: rgb(91,91,91); fill-rule: nonzero; opacity: 1;" vector-effect="non-scaling-stroke"  transform=" translate(0, 0)" d="M 0 -3.5 C 1.932 -3.5 3.5 -1.932 3.5 0 C 3.5 1.932 1.932 3.5 0 3.5 C -1.932 3.5 -3.5 1.932 -3.5 0 C -3.5 -1.932 -1.932 -3.5 0 -3.5 z" stroke-linecap="round" />
</g>
<g transform="matrix(-0.96 0.19 -0.19 -0.99 -40.95 71.85)" id="kBbn4CqR-JueUHwtXUsE5"  >
<path style="stroke: rgb(0,0,0); stroke-width: 0; stroke-dasharray: none; stroke-linecap: butt; stroke-dashoffset: 0; stroke-linejoin: miter; stroke-miterlimit: 4; fill: rgb(158,193,193); fill-rule: nonzero; opacity: 1;" vector-effect="non-scaling-stroke"  transform=" translate(0, 0)" d="M -4.14909 -15.64309 L 6.3417699999999995 -4.782530000000001 C 6.3417699999999995 -4.782530000000001 2.285939999999999 -1.973660000000001 7.79611 16.4291 C 6.7829999999999995 14.588129999999998 1.68905 4.372669999999998 3.2981 -4.3281600000000005 C 3.2981 -4.626130000000001 2.8748799999999997 -10.78311 -5.825950000000001 -12.21338 C -5.647170000000001 -12.45176 -8.08244 -12.36274 -7.76806 -16.429100000000002 C -6.212540000000001 -16.190720000000002 -4.14909 -15.643090000000003 -4.14909 -15.643090000000003 z" stroke-linecap="round" />
</g>
<g transform="matrix(0.45 -0.47 0.47 0.45 104.64 106.59)" id="BC1V8pql9oziuqCyCHuwZ"  >
<path style="stroke: rgb(188,98,107); stroke-width: 0; stroke-dasharray: none; stroke-linecap: butt; stroke-dashoffset: 0; stroke-linejoin: miter; stroke-miterlimit: 4; fill: rgb(158,193,193); fill-rule: nonzero; opacity: 1;" vector-effect="non-scaling-stroke"  transform=" translate(0, 0)" d="M 0 -3.5 C 1.932 -3.5 3.5 -1.932 3.5 0 C 3.5 1.932 1.932 3.5 0 3.5 C -1.932 3.5 -3.5 1.932 -3.5 0 C -3.5 -1.932 -1.932 -3.5 0 -3.5 z" stroke-linecap="round" />
</g>
<g transform="matrix(0.24 -0.25 0.25 0.24 105.72 100.53)" id="EY1LWF6rXPINnuXxdZBLg"  >
<path style="stroke: rgb(188,98,107); stroke-width: 0; stroke-dasharray: none; stroke-linecap: butt; stroke-dashoffset: 0; stroke-linejoin: miter; stroke-miterlimit: 4; fill: rgb(158,193,193); fill-rule: nonzero; opacity: 1;" vector-effect="non-scaling-stroke"  transform=" translate(0, 0)" d="M 0 -3.5 C 1.932 -3.5 3.5 -1.932 3.5 0 C 3.5 1.932 1.932 3.5 0 3.5 C -1.932 3.5 -3.5 1.932 -3.5 0 C -3.5 -1.932 -1.932 -3.5 0 -3.5 z" stroke-linecap="round" />
</g>
<g transform="matrix(1 0 0 1 -93 7.28)" id="raTz5Tw2b1RIBAGPfORg0"  >
<path style="stroke: rgb(0,0,0); stroke-width: 0; stroke-dasharray: none; stroke-linecap: butt; stroke-dashoffset: 0; stroke-linejoin: miter; stroke-miterlimit: 4; fill: rgb(158,193,193); fill-rule: nonzero; opacity: 1;" vector-effect="non-scaling-stroke"  transform=" translate(0, 0)" d="M -0.72791 -1.86851 L 1.96121 -1.86851 L 1.5161499999999999 1.7386900000000003 L -1.9612200000000002 1.8685100000000003 z" stroke-linecap="round" />
</g>
<g transform="matrix(-0.96 0 0 1 24.07 115.27)" id="Gt5gslNu9u22PthGfk6o9"  >
<path style="stroke: rgb(0,0,0); stroke-width: 0; stroke-dasharray: none; stroke-linecap: butt; stroke-dashoffset: 0; stroke-linejoin: miter; stroke-miterlimit: 4; fill: rgb(91,91,91); fill-rule: nonzero; opacity: 1;" vector-effect="non-scaling-stroke"  transform=" translate(0, 0)" d="M 19.47557 1.43544 L 23.44703 -4.66803 L 17.72606 0.3319700000000001 L -23.44703 0.02518000000000009 L -23.44703 4.6680399999999995 L -21.661320000000003 1.3347099999999994 z" stroke-linecap="round" />
</g>
<g transform="matrix(0.35 0 0 -0.35 42.97 43.73)" id="6INJ-otS7-2oqJcrvLNLI"  >
<path style="stroke: rgb(188,98,107); stroke-width: 0; stroke-dasharray: none; stroke-linecap: butt; stroke-dashoffset: 0; stroke-linejoin: miter; stroke-miterlimit: 4; fill: rgb(91,91,91); fill-rule: nonzero; opacity: 1;" vector-effect="non-scaling-stroke"  transform=" translate(0, 0)" d="M 0 -3.5 C 1.932 -3.5 3.5 -1.932 3.5 0 C 3.5 1.932 1.932 3.5 0 3.5 C -1.932 3.5 -3.5 1.932 -3.5 0 C -3.5 -1.932 -1.932 -3.5 0 -3.5 z" stroke-linecap="round" />
</g>
<g transform="matrix(1.09 0 0 -1 -91.45 98.8)" id="JDW95sqecwcz-_DIce_4R"  >
<path style="stroke: rgb(0,0,0); stroke-width: 0; stroke-dasharray: none; stroke-linecap: butt; stroke-dashoffset: 0; stroke-linejoin: miter; stroke-miterlimit: 4; fill: rgb(0,0,0); fill-rule: nonzero; opacity: 1;" vector-effect="non-scaling-stroke"  transform=" translate(0, 0)" d="M 0.01509 1.87993 C 0.01006 1.87854 0.00503 1.87714 0 1.8757400000000002 C -0.00503 1.8771400000000003 -0.01006 1.8785300000000003 -0.01509 1.87993 C -24.27867 8.67603 -25.61787 4.71593 -31.75525 -3.9900900000000004 C -31.99116 -4.324730000000001 -31.95291 -4.780410000000001 -31.66452 -5.07104 C -31.37613 -5.36167 -30.92077 -5.40346 -30.58431 -5.17016 C -25.16023 -1.40911 -18.05325 3.1823799999999993 -11.866609999999998 1.8799299999999999 C -9.443579999999997 1.3698199999999998 0.01509000000000249 -2.5707000000000004 0.01509000000000249 -2.5707000000000004 C 0.01509000000000249 -2.5707000000000004 9.443580000000003 1.3698199999999994 11.866610000000003 1.8799299999999999 C 18.053250000000002 3.18238 25.160230000000006 -1.40911 30.584310000000002 -5.17016 C 30.92077 -5.40346 31.376130000000003 -5.36167 31.664520000000003 -5.07104 C 31.952910000000003 -4.78041 31.991160000000004 -4.32473 31.755250000000004 -3.99009 C 25.617870000000003 4.71593 24.278670000000005 8.676029999999999 0.015090000000004267 1.8799300000000003 z" stroke-linecap="round" />
</g>
<g transform="matrix(1 0 0 -1 -57.02 88.38)" id="TNyLcC1tf79fZ2DVB9ls0"  >
<path style="stroke: rgb(0,0,0); stroke-width: 0; stroke-dasharray: none; stroke-linecap: butt; stroke-dashoffset: 0; stroke-linejoin: miter; stroke-miterlimit: 4; fill: rgb(158,193,193); fill-rule: nonzero; opacity: 1;" vector-effect="non-scaling-stroke"  transform=" translate(0, 0)" d="M -12.79762 11.72029 L -6.3690500000000005 7.0063 C -6.3690500000000005 7.0063 -3.8667100000000008 -12.99185 0.8951899999999995 -9.063279999999999 C 5.657089999999999 -5.134709999999998 12.797609999999999 -9.062549999999998 12.797609999999999 -9.062549999999998 C 12.797609999999999 -9.062549999999998 -3.6309600000000017 -15.537099999999999 -4.58334 -8.275199999999998 C -5.5357199999999995 -1.0132999999999983 -12.79763 11.720280000000002 -12.79763 11.720280000000002 z" stroke-linecap="round" />
</g>
<g transform="matrix(1 0 0 1 60.39 25.19)" id="5nt3TNaKXJqplCduWJ9z3"  >
<path style="stroke: rgb(0,0,0); stroke-width: 0; stroke-dasharray: none; stroke-linecap: butt; stroke-dashoffset: 0; stroke-linejoin: miter; stroke-miterlimit: 4; fill: rgb(158,193,193); fill-rule: nonzero; opacity: 1;" vector-effect="non-scaling-stroke"  transform=" translate(0, 0)" d="M 26.62371 -10.35657 L 6.020060000000001 2.4862400000000004 C 6.020060000000001 2.4862400000000004 -5.358549999999999 -6.744529999999999 -12.18129 3.9578100000000003 C -19.00403 14.66015 -14.31438 17.068179999999998 -14.31438 17.068179999999998 C -14.31438 17.068179999999998 -26.48829 11.048109999999998 -37.59197 13.589919999999998 C -37.59197 13.723699999999997 -34.648830000000004 8.238749999999998 -29.832770000000004 8.506309999999997 C -25.016720000000003 8.773869999999997 -15.919730000000003 17.472429999999996 -17.926420000000004 3.2918299999999974 C -17.926420000000004 3.1580499999999976 -11.772570000000004 -7.547200000000002 5.217389999999995 -10.356570000000003 C 5.618729999999995 -10.356570000000003 -2.4080300000000054 4.003629999999998 37.591969999999996 -17.068170000000002 C 37.591969999999996 -17.002850000000002 26.623709999999996 -10.356570000000001 26.623709999999996 -10.356570000000001 z" stroke-linecap="round" />
</g>
<g transform="matrix(0.64 0 0 0.77 93.2 86.86)" id="Iz-3I5v4osw9vU-1AhYha"  >
<path style="stroke: rgb(91,91,91); stroke-width: 0; stroke-dasharray: none; stroke-linecap: butt; stroke-dashoffset: 0; stroke-linejoin: miter; stroke-miterlimit: 4; fill: rgb(91,91,91); fill-rule: nonzero; opacity: 1;" vector-effect="non-scaling-stroke"  transform=" translate(0, 0)" d="M -23.08459 -38.74093 C -7.3989699999999985 -36.48007 21.463900000000002 -31.296699999999998 13.035809999999998 -14.17296 C 4.607719999999999 2.9507900000000014 2.4649699999999974 38.98057 14.906439999999998 38.98057 C 27.34791 38.98057 20.766889999999997 3.5279799999999994 20.766889999999997 3.5279799999999994 C 20.766889999999997 3.5279799999999994 26.545229999999997 37.55962 14.906439999999996 32.87735 C 3.2676399999999965 28.19508 13.944149999999997 -5.940089999999998 20.766889999999997 -15.572200000000002 C 27.589629999999996 -25.204310000000003 17.175939999999997 -35.35064 17.182969999999997 -35.52409 C 13.042839999999998 -30.88149 -9.472550000000002 -40.60046 -23.084590000000006 -38.74094 z" stroke-linecap="round" />
</g>
<g transform="matrix(0.7 0 0 1 29.31 75.22)" id="_Hw2Z5l7NO5vVIlrgVn8a"  >
<path style="stroke: rgb(0,0,0); stroke-width: 0; stroke-dasharray: none; stroke-linecap: butt; stroke-dashoffset: 0; stroke-linejoin: miter; stroke-miterlimit: 4; fill: rgb(158,193,193); fill-rule: nonzero; opacity: 1;" vector-effect="non-scaling-stroke"  transform=" translate(0, 0)" d="M -0.13966 -32.96469 C -0.13966 -32.96469 -13.383809999999999 -37.00712 -31.979119999999998 -31.254619999999996 C -32.112899999999996 -31.254619999999996 -24.62126 -23.582249999999995 -34.78848 -19.167529999999996 C -35.05604 -18.766189999999995 -10.03932 -24.384919999999994 -22.21323 -29.468529999999994 C -18.46741 -30.271209999999993 11.262179999999997 -29.222339999999996 24.773880000000002 -11.831039999999994 C 38.28559 5.560260000000007 23.940610000000003 21.473640000000003 23.940610000000003 21.473640000000003 C 23.940610000000003 21.473640000000003 31.432250000000003 23.909400000000005 30.495790000000003 34.34418 C 30.629570000000005 34.47796 38.923880000000004 8.52478 32.10114 -4.585589999999996 C 25.2784 -17.695959999999996 14.040940000000003 -25.971419999999995 -4.286819999999999 -30.787469999999995 C -3.2165899999999987 -32.39281999999999 -0.13965999999999834 -32.96469 -0.13965999999999834 -32.96469 z" stroke-linecap="round" />
</g>
<g transform="matrix(0.8 0 0 0.93 71.98 78.83)" id="manNTnoBvTAZDIW6Vs7QC"  >
<path style="stroke: rgb(0,0,0); stroke-width: 0; stroke-dasharray: none; stroke-linecap: butt; stroke-dashoffset: 0; stroke-linejoin: miter; stroke-miterlimit: 4; fill: rgb(91,91,91); fill-rule: nonzero; opacity: 1;" vector-effect="non-scaling-stroke"  transform=" translate(0, 0)" d="M -30.33998 31.87867 C -30.33998 31.87867 -30.98203 25.81307 -30.33998 19.713549999999998 C -29.69793 13.614029999999998 -25.32665 11.025449999999998 -29.17898 4.123359999999998 C -33.03131 -2.778730000000002 -25.41847 -19.80742 -25.41847 -19.80742 C -25.41847 -19.80742 -25.74664 -27.865830000000003 -32.64872 -31.87867 C -29.117419999999996 -31.55764 32.648740000000004 -12.1892 32.648740000000004 -12.1892 L -25.418459999999996 -27.42897 L -19.340899999999998 -16.91817 C -19.340899999999998 -16.91817 -28.092779999999998 -11.94225 -28.092779999999998 -3.2745099999999994 C -28.092779999999998 5.393230000000001 -24.5124 12.76199 -24.5124 12.76199 z" stroke-linecap="round" />
</g>
<g transform="matrix(0.73 -0.76 0.76 0.73 -64.62 28.48)" id="pnKIKWhuitpwNYzJig5fN"  >
<path style="stroke: rgb(188,98,107); stroke-width: 0; stroke-dasharray: none; stroke-linecap: butt; stroke-dashoffset: 0; stroke-linejoin: miter; stroke-miterlimit: 4; fill: rgb(158,193,193); fill-rule: nonzero; opacity: 1;" vector-effect="non-scaling-stroke"  transform=" translate(0, 0)" d="M 0 -3.5 C 1.932 -3.5 3.5 -1.932 3.5 0 C 3.5 1.932 1.932 3.5 0 3.5 C -1.932 3.5 -3.5 1.932 -3.5 0 C -3.5 -1.932 -1.932 -3.5 0 -3.5 z" stroke-linecap="round" />
</g>
<g transform="matrix(0.96 0 0 1 73.78 115.26)" id="9Hpiv_rpCaZZrjKFeFpwJ"  >
<path style="stroke: rgb(0,0,0); stroke-width: 0; stroke-dasharray: none; stroke-linecap: butt; stroke-dashoffset: 0; stroke-linejoin: miter; stroke-miterlimit: 4; fill: rgb(91,91,91); fill-rule: nonzero; opacity: 1;" vector-effect="non-scaling-stroke"  transform=" translate(0, 0)" d="M 19.47557 1.43544 L 23.44703 -4.66803 L 17.72606 0.3319700000000001 L -23.44703 0.02518000000000009 L -23.44703 4.6680399999999995 L -21.661320000000003 1.3347099999999994 z" stroke-linecap="round" />
</g>
<g transform="matrix(1 0 0 1 45.23 55.07)" id="Sd9yqBwWAouOxvCecQfH0"  >
<path style="stroke: rgb(0,0,0); stroke-width: 0; stroke-dasharray: none; stroke-linecap: butt; stroke-dashoffset: 0; stroke-linejoin: miter; stroke-miterlimit: 4; fill: rgb(0,0,0); fill-rule: nonzero; opacity: 1;" vector-effect="non-scaling-stroke"  transform=" translate(0, 0)" d="M -6.09486 -12.56887 C -6.09486 -12.56887 -11.46169 -13.97601 -16.03311 -10.118870000000001 C -20.60454 -6.261730000000002 -19.09486 -3.503870000000001 -19.09486 -3.503870000000001 C -19.09486 -3.503870000000001 -6.467880000000001 -3.323590000000001 -1.0393100000000004 9.533549999999998 C -0.3250200000000004 9.247839999999998 0.7047399999999997 3.3641299999999985 2.9051399999999994 2.5784199999999986 C 5.1055399999999995 1.7927099999999987 12.762279999999999 0.6764099999999986 16.33371 7.533549999999998 C 14.90514 9.390689999999998 8.40855 12.819259999999998 8.40855 12.819259999999998 C 8.40855 12.819259999999998 19.33371 10.535989999999998 19.33371 6.535989999999998 C 19.33371 2.535989999999998 7.476570000000001 -1.0038800000000014 2.9051399999999994 -0.003880000000001438 C -1.666290000000001 0.9961199999999986 -1.0393100000000004 6.535989999999998 -1.0393100000000004 6.535989999999998 C -1.0393100000000004 6.535989999999998 -6.604550000000001 -3.4346000000000014 -16.03312 -5.148880000000002 C -15.03312 -12.29174 -6.09487 -12.568880000000002 -6.09487 -12.568880000000002 z" stroke-linecap="round" />
</g>
<g transform="matrix(1 0 0 1 46.22 65.31)" id="4K2pdhfxF7kddKRXjm77z"  >
<path style="stroke: rgb(0,0,0); stroke-width: 0; stroke-dasharray: none; stroke-linecap: butt; stroke-dashoffset: 0; stroke-linejoin: miter; stroke-miterlimit: 4; fill: rgb(158,193,193); fill-rule: nonzero; opacity: 1;" vector-effect="non-scaling-stroke"  transform=" translate(-7.22, -13.71)" d="M 12.76278 19.03728 C 13.64885 21.47128 14.17042 24.347949999999997 14.431719999999999 27.41817 L 11.691669999999998 27.41817 C 11.670359999999999 22.66384 10.631859999999998 17.30202 7.637219999999998 11.79183 C 5.541829999999998 7.93629 2.888869999999998 4.883939999999999 -1.7763568394002505e-15 2.4769099999999984 L -1.7763568394002505e-15 0.000009999999998289155 C 5.715869999999998 4.727249999999998 9.824549999999999 10.966019999999999 12.762779999999998 19.03729 z" stroke-linecap="round" />
</g>
</svg>