<?xml version="1.0" encoding="UTF-8" standalone="no" ?>
<!DOCTYPE svg PUBLIC "-//W3C//DTD SVG 1.1//EN" "http://www.w3.org/Graphics/SVG/1.1/DTD/svg11.dtd">
<svg xmlns="http://www.w3.org/2000/svg" xmlns:xlink="http://www.w3.org/1999/xlink" version="1.1" width="120" height="130" viewBox="0 0 120 130" xml:space="preserve">
<desc>Created with Fabric.js 4.6.0</desc>
<defs>
</defs>
<g transform="matrix(1 0 0 1 -57.86 91.51)" id="LD5hxTJyFSIseFaYNMFoE"  >
<path style="stroke: rgb(188,98,107); stroke-width: 0; stroke-dasharray: none; stroke-linecap: butt; stroke-dashoffset: 0; stroke-linejoin: miter; stroke-miterlimit: 4; fill: rgb(0,0,0); fill-rule: nonzero; opacity: 1;" vector-effect="non-scaling-stroke"  transform=" translate(-3.5, -3.5)" d="M 3.5 0 C 5.432 0 7 1.568 7 3.5 C 7 5.432 5.432 7 3.5 7 C 1.568 7 0 5.432 0 3.5 C 0 1.568 1.568 0 3.5 0 z" stroke-linecap="round" />
</g>
<g transform="matrix(1.01 0 0 1 -61.95 70.92)" id="wwB8XZaE36qXPn8ezPyTk"  >
<path style="stroke: rgb(0,0,0); stroke-width: 0; stroke-dasharray: none; stroke-linecap: butt; stroke-dashoffset: 0; stroke-linejoin: miter; stroke-miterlimit: 4; fill: rgb(0,0,0); fill-rule: nonzero; opacity: 1;" vector-effect="non-scaling-stroke"  transform=" translate(0, 0)" d="M -16.33653 9.8297 C -16.33653 9.8297 -5.625159999999999 3.429820000000001 -0.10105000000000075 14.208560000000002 C -0.23578000000000074 14.141190000000002 16.33653 0.19620000000000282 16.33653 0.19620000000000282 C 16.33653 0.19620000000000282 -6.8680699999999995 0.3450100000000028 -10.557310000000001 0.19620000000000282 C -15.307370000000002 -2.333559999999997 -16.33652 -14.208559999999997 -16.33652 -14.208559999999997 z" stroke-linecap="round" />
</g>
<g transform="matrix(0.71 0 0 0.71 -55.38 16.19)" id="bP0MAMz4eWiNrkuoRn2ub"  >
<path style="stroke: rgb(188,98,107); stroke-width: 0; stroke-dasharray: none; stroke-linecap: butt; stroke-dashoffset: 0; stroke-linejoin: miter; stroke-miterlimit: 4; fill: rgb(0,0,0); fill-rule: nonzero; opacity: 1;" vector-effect="non-scaling-stroke"  transform=" translate(0, 0)" d="M 0 -3.5 C 1.932 -3.5 3.5 -1.932 3.5 0 C 3.5 1.932 1.932 3.5 0 3.5 C -1.932 3.5 -3.5 1.932 -3.5 0 C -3.5 -1.932 -1.932 -3.5 0 -3.5 z" stroke-linecap="round" />
</g>
<g transform="matrix(1 0 0 1 -57.34 35.53)" id="raTz5Tw2b1RIBAGPfORg0"  >
<path style="stroke: rgb(0,0,0); stroke-width: 0; stroke-dasharray: none; stroke-linecap: butt; stroke-dashoffset: 0; stroke-linejoin: miter; stroke-miterlimit: 4; fill: rgb(158,193,193); fill-rule: nonzero; opacity: 1;" vector-effect="non-scaling-stroke"  transform=" translate(0, 0)" d="M -0.72791 -1.86851 L 1.96121 -1.86851 L 1.5161499999999999 1.7386900000000003 L -1.9612200000000002 1.8685100000000003 z" stroke-linecap="round" />
</g>
<g transform="matrix(0 1.02 -1.4 0 -70.32 65.41)" id="Gt5gslNu9u22PthGfk6o9"  >
<path style="stroke: rgb(0,0,0); stroke-width: 0; stroke-dasharray: none; stroke-linecap: butt; stroke-dashoffset: 0; stroke-linejoin: miter; stroke-miterlimit: 4; fill: rgb(91,91,91); fill-rule: nonzero; opacity: 1;" vector-effect="non-scaling-stroke"  transform=" translate(0, 0)" d="M 9.28571 5.95238 L 23.92857 -9.28572 L 8.09524 4.642850000000001 L -23.928569999999997 4.642850000000001 L -23.928569999999997 9.285710000000002 L -22.14286 5.952380000000002 z" stroke-linecap="round" />
</g>
<g transform="matrix(0.54 0.84 -0.86 0.56 57.97 15.19)" id="VqhFxtz_xBkyb1pvmkVVP"  >
<path style="stroke: rgb(0,0,0); stroke-width: 0; stroke-dasharray: none; stroke-linecap: butt; stroke-dashoffset: 0; stroke-linejoin: miter; stroke-miterlimit: 4; fill: rgb(158,193,193); fill-rule: nonzero; opacity: 1;" vector-effect="non-scaling-stroke"  transform=" translate(0, 0)" d="M 12.65196 -13.99736 L 1.3060500000000008 -17.33946 C 1.3060500000000008 -17.33946 1.6708800000000008 -13.677129999999998 -1.8186199999999992 -10.32369 C -5.308119999999999 -6.970249999999999 -12.65195 -3.925699999999999 -12.65195 -3.925699999999999 L -12.65195 17.339470000000002 C -12.65195 17.339470000000002 -3.916359999999999 -8.472039999999996 -2.565429999999999 2.3794600000000017 C -2.565429999999999 2.6693200000000017 12.65196 -13.997349999999997 12.65196 -13.997349999999997 z" stroke-linecap="round" />
</g>
<g transform="matrix(0.6 -0.39 0.4 0.62 14.85 74.4)" id="Fu9oWL0d8tZEyBo0GwIwp"  >
<path style="stroke: rgb(0,0,0); stroke-width: 0; stroke-dasharray: none; stroke-linecap: butt; stroke-dashoffset: 0; stroke-linejoin: miter; stroke-miterlimit: 4; fill: rgb(158,193,193); fill-rule: nonzero; opacity: 1;" vector-effect="non-scaling-stroke"  transform=" translate(0, 0)" d="M 12.65196 -13.99736 L 1.3060500000000008 -17.33946 C 1.3060500000000008 -17.33946 1.6708800000000008 -13.677129999999998 -1.8186199999999992 -10.32369 C -5.308119999999999 -6.970249999999999 -12.65195 -3.925699999999999 -12.65195 -3.925699999999999 L -12.65195 17.339470000000002 C -12.65195 17.339470000000002 -3.916359999999999 -8.472039999999996 -2.565429999999999 2.3794600000000017 C -2.565429999999999 2.6693200000000017 12.65196 -13.997349999999997 12.65196 -13.997349999999997 z" stroke-linecap="round" />
</g>
<g transform="matrix(1.23 -0.04 0.04 1.26 24.1 37.5)" id="ruB2skQZMqRNMR0F5-Uj-"  >
<path style="stroke: rgb(0,0,0); stroke-width: 0; stroke-dasharray: none; stroke-linecap: butt; stroke-dashoffset: 0; stroke-linejoin: miter; stroke-miterlimit: 4; fill: rgb(158,193,193); fill-rule: nonzero; opacity: 1;" vector-effect="non-scaling-stroke"  transform=" translate(0, 0)" d="M 12.65196 -13.99736 L 1.3060500000000008 -17.33946 C 1.3060500000000008 -17.33946 1.6708800000000008 -13.677129999999998 -1.8186199999999992 -10.32369 C -5.308119999999999 -6.970249999999999 -12.65195 -3.925699999999999 -12.65195 -3.925699999999999 L -12.65195 17.339470000000002 C -12.65195 17.339470000000002 -3.916359999999999 -8.472039999999996 -2.565429999999999 2.3794600000000017 C -2.565429999999999 2.6693200000000017 12.65196 -13.997349999999997 12.65196 -13.997349999999997 z" stroke-linecap="round" />
</g>
<g transform="matrix(1.54 2.46 -0.66 0.41 65.94 100.17)" id="EK_1dCK7Tnxe_BNxBbvJW"  >
<path style="stroke: rgb(0,0,0); stroke-width: 0; stroke-dasharray: none; stroke-linecap: butt; stroke-dashoffset: 0; stroke-linejoin: miter; stroke-miterlimit: 4; fill: rgb(0,0,0); fill-rule: nonzero; opacity: 1;" vector-effect="non-scaling-stroke"  transform=" translate(0, 0)" d="M -9.09489 43.16309 C -9.0154 42.617039999999996 5.68018 17.592429999999997 5.81934 -26.795450000000002 C 5.88898 -49.01091 3.9926700000000004 -60.36242 0.6799200000000001 -69.9097 L 0.6799200000000001 -69.9097 C 0.4066200000000001 -70.69735 0.3482900000000001 -72.14169 0.54739 -73.19149 C 0.7464900000000001 -74.24129 1.13287 -74.52666 1.42531 -73.8399 C 5.56264 -64.12386000000001 9.0479 -49.87448 9.12015 -26.795450000000002 C 9.254420000000001 16.090779999999995 -6.108089999999999 44.18952 -6.108089999999999 44.18952 C -6.108089999999999 44.18952 -8.922899999999998 48.04732 -9.09488 74.21348 C -9.10266 72.21471000000001 -9.14956 45.57759 -9.09488 43.163090000000004 z" stroke-linecap="round" />
</g>
<g transform="matrix(-1.62 -2.4 -0.65 0.44 40.93 47.72)" id="clklaqZIxq5E5LsYAiqES"  >
<path style="stroke: rgb(0,0,0); stroke-width: 0; stroke-dasharray: none; stroke-linecap: butt; stroke-dashoffset: 0; stroke-linejoin: miter; stroke-miterlimit: 4; fill: rgb(0,0,0); fill-rule: nonzero; opacity: 1;" vector-effect="non-scaling-stroke"  transform=" translate(0, 0)" d="M -9.09489 54.29688 C -9.0154 53.75083 5.68018 28.72622 5.81934 -15.661659999999998 C 5.90671 -43.53134 -0.7322999999999995 -67.14388 -6.61018 -82.84423 L -6.61018 -82.84423 C -6.773569999999999 -83.28067 -6.813829999999999 -84.12138 -6.7009799999999995 -84.74065 C -6.58813 -85.35991 -6.363199999999999 -85.53265 -6.193599999999999 -85.1303 C 0.527070000000001 -69.18658 9.03301 -43.49638 9.120160000000002 -15.66167 C 9.254430000000003 27.224559999999997 -6.1080799999999975 55.3233 -6.1080799999999975 55.3233 C -6.1080799999999975 55.3233 -8.922889999999997 59.1811 -9.094869999999997 85.34726 C -9.102649999999997 83.34849000000001 -9.149549999999996 56.71137 -9.094869999999997 54.296870000000006 z" stroke-linecap="round" />
</g>
<g transform="matrix(-1.14 0 0 1.6 64.26 113.49)" id="jl6gOLmFSdtHTdUsy1MV8"  >
<path style="stroke: rgb(0,0,0); stroke-width: 0; stroke-dasharray: none; stroke-linecap: butt; stroke-dashoffset: 0; stroke-linejoin: miter; stroke-miterlimit: 4; fill: rgb(91,91,91); fill-rule: nonzero; opacity: 1;" vector-effect="non-scaling-stroke"  transform=" translate(0, 0)" d="M -25.49964 -9.08475 C -25.49964 -9.37461 25.499630000000003 -9.08475 25.499630000000003 -9.08475 C 25.499630000000003 -9.08475 14.313580000000004 -2.71493 10.419020000000003 9.21358 C 10.274090000000003 9.21358 8.302640000000004 2.0386200000000008 8.302640000000004 2.0386200000000008 C 8.302640000000004 2.0386200000000008 9.896860000000004 -1.9738799999999994 14.898470000000003 -5.302079999999999 C 15.043400000000004 -5.447009999999999 3.4892400000000023 -7.058319999999999 -23.072539999999996 -6.765909999999999 C -23.265669999999997 -7.738049999999999 -24.697339999999997 -8.18958 -25.499639999999996 -9.08475 z" stroke-linecap="round" />
</g>
<g transform="matrix(0.93 -0.34 0.34 0.94 68.59 57.71)" id="oNzP-XiG0s1uaRRunNthU"  >
<path style="stroke: rgb(0,0,0); stroke-width: 0; stroke-dasharray: none; stroke-linecap: butt; stroke-dashoffset: 0; stroke-linejoin: miter; stroke-miterlimit: 4; fill: rgb(0,0,0); fill-rule: nonzero; opacity: 1;" vector-effect="non-scaling-stroke"  transform=" translate(0, 0)" d="M -15.01775 12.80556 L 8.964940000000002 -5.3161999999999985 C 8.964940000000002 -5.3161999999999985 7.015830000000002 -5.759159999999999 7.138100000000002 -8.057969999999997 C 7.138100000000002 -8.125339999999998 10.928100000000002 -12.162949999999999 11.641450000000003 -12.805559999999996 C 11.708820000000003 -12.738189999999996 10.162590000000002 -9.469159999999997 14.007230000000003 -8.851189999999995 C 14.141960000000003 -8.716459999999996 15.017740000000003 -2.6534099999999956 15.017740000000003 -2.6534099999999956 z" stroke-linecap="round" />
</g>
<g transform="matrix(0.35 0 0 0.35 72.15 51.11)" id="c4avItgSCJBsKgJ9cSWs8"  >
<path style="stroke: rgb(188,98,107); stroke-width: 0; stroke-dasharray: none; stroke-linecap: butt; stroke-dashoffset: 0; stroke-linejoin: miter; stroke-miterlimit: 4; fill: rgb(158,193,193); fill-rule: nonzero; opacity: 1;" vector-effect="non-scaling-stroke"  transform=" translate(0, 0)" d="M 0 -3.5 C 1.932 -3.5 3.5 -1.932 3.5 0 C 3.5 1.932 1.932 3.5 0 3.5 C -1.932 3.5 -3.5 1.932 -3.5 0 C -3.5 -1.932 -1.932 -3.5 0 -3.5 z" stroke-linecap="round" />
</g>
<g transform="matrix(0.27 0 0 0.27 70.3 54.3)" id="8mXua7aidPd3tvxIOxdtj"  >
<path style="stroke: rgb(188,98,107); stroke-width: 0; stroke-dasharray: none; stroke-linecap: butt; stroke-dashoffset: 0; stroke-linejoin: miter; stroke-miterlimit: 4; fill: rgb(158,193,193); fill-rule: nonzero; opacity: 1;" vector-effect="non-scaling-stroke"  transform=" translate(0, 0)" d="M 0 -3.5 C 1.932 -3.5 3.5 -1.932 3.5 0 C 3.5 1.932 1.932 3.5 0 3.5 C -1.932 3.5 -3.5 1.932 -3.5 0 C -3.5 -1.932 -1.932 -3.5 0 -3.5 z" stroke-linecap="round" />
</g>
<g transform="matrix(0.24 0 0 0.24 68.59 57.32)" id="UWGnbpalRIU2vid2CIRMm"  >
<path style="stroke: rgb(188,98,107); stroke-width: 0; stroke-dasharray: none; stroke-linecap: butt; stroke-dashoffset: 0; stroke-linejoin: miter; stroke-miterlimit: 4; fill: rgb(158,193,193); fill-rule: nonzero; opacity: 1;" vector-effect="non-scaling-stroke"  transform=" translate(0, 0)" d="M 0 -3.5 C 1.932 -3.5 3.5 -1.932 3.5 0 C 3.5 1.932 1.932 3.5 0 3.5 C -1.932 3.5 -3.5 1.932 -3.5 0 C -3.5 -1.932 -1.932 -3.5 0 -3.5 z" stroke-linecap="round" />
</g>
<g transform="matrix(0.18 0 0 0.18 67.14 60.03)" id="TLKzHcVFRmvMdPny3hPU1"  >
<path style="stroke: rgb(188,98,107); stroke-width: 0; stroke-dasharray: none; stroke-linecap: butt; stroke-dashoffset: 0; stroke-linejoin: miter; stroke-miterlimit: 4; fill: rgb(158,193,193); fill-rule: nonzero; opacity: 1;" vector-effect="non-scaling-stroke"  transform=" translate(0, 0)" d="M 0 -3.5 C 1.932 -3.5 3.5 -1.932 3.5 0 C 3.5 1.932 1.932 3.5 0 3.5 C -1.932 3.5 -3.5 1.932 -3.5 0 C -3.5 -1.932 -1.932 -3.5 0 -3.5 z" stroke-linecap="round" />
</g>
<g transform="matrix(0.71 0 0 0.71 5.29 67.83)" id="L3Hj0AGdvbGqxkRtPRSyb"  >
<path style="stroke: rgb(188,98,107); stroke-width: 0; stroke-dasharray: none; stroke-linecap: butt; stroke-dashoffset: 0; stroke-linejoin: miter; stroke-miterlimit: 4; fill: rgb(0,0,0); fill-rule: nonzero; opacity: 1;" vector-effect="non-scaling-stroke"  transform=" translate(0, 0)" d="M 0 -3.5 C 1.932 -3.5 3.5 -1.932 3.5 0 C 3.5 1.932 1.932 3.5 0 3.5 C -1.932 3.5 -3.5 1.932 -3.5 0 C -3.5 -1.932 -1.932 -3.5 0 -3.5 z" stroke-linecap="round" />
</g>
<g transform="matrix(1 0 0 1 85.27 108.75)" id="ZBZb6T9gT5Qa-mNJEqSUu"  >
<path style="stroke: rgb(91,91,91); stroke-width: 0; stroke-dasharray: none; stroke-linecap: butt; stroke-dashoffset: 0; stroke-linejoin: miter; stroke-miterlimit: 4; fill: rgb(158,193,193); fill-rule: nonzero; opacity: 1;" vector-effect="non-scaling-stroke"  transform=" translate(0, 0)" d="M -31.22051 17.80409 L -29.56401 8.881699999999999 C -29.56401 8.881699999999999 -13.34779 12.797769999999998 -2.7113499999999995 11.054089999999999 C 7.925090000000001 9.31041 12.28429 -4.893360000000001 12.28429 -4.893360000000001 C 12.28429 -4.893360000000001 22.310450000000003 -13.270520000000001 24.83878 -17.80408 C 25.18752 -17.80408 30.94166 -16.66319 31.20321 -11.51934 C 31.46476 -6.37549 28.674879999999998 -3.6727799999999995 28.674879999999998 -3.6727799999999995 C 28.674879999999998 -3.6727799999999995 31.219479999999997 -14.26774 25.639709999999997 -13.3959 C 25.552529999999997 -13.30872 15.858839999999997 -5.416459999999999 20.741139999999998 -0.27259999999999884 C 20.741139999999998 -0.3597799999999988 13.853609999999998 11.465480000000001 -0.44456000000000273 14.6041 C -14.742730000000003 17.742720000000002 -27.299490000000002 12.119100000000001 -27.299490000000002 12.119100000000001 z" stroke-linecap="round" />
</g>
<g transform="matrix(0.71 0 0 0.71 17.34 22.09)" id="F5nofapAiTXVLPKf7fjeu"  >
<path style="stroke: rgb(188,98,107); stroke-width: 0; stroke-dasharray: none; stroke-linecap: butt; stroke-dashoffset: 0; stroke-linejoin: miter; stroke-miterlimit: 4; fill: rgb(0,0,0); fill-rule: nonzero; opacity: 1;" vector-effect="non-scaling-stroke"  transform=" translate(0, 0)" d="M 0 -3.5 C 1.932 -3.5 3.5 -1.932 3.5 0 C 3.5 1.932 1.932 3.5 0 3.5 C -1.932 3.5 -3.5 1.932 -3.5 0 C -3.5 -1.932 -1.932 -3.5 0 -3.5 z" stroke-linecap="round" />
</g>
<g transform="matrix(0.71 0 0 0.71 65.94 3.77)" id="Lu_abKCbD1G8BFpTcjiCs"  >
<path style="stroke: rgb(188,98,107); stroke-width: 0; stroke-dasharray: none; stroke-linecap: butt; stroke-dashoffset: 0; stroke-linejoin: miter; stroke-miterlimit: 4; fill: rgb(0,0,0); fill-rule: nonzero; opacity: 1;" vector-effect="non-scaling-stroke"  transform=" translate(0, 0)" d="M 0 -3.5 C 1.932 -3.5 3.5 -1.932 3.5 0 C 3.5 1.932 1.932 3.5 0 3.5 C -1.932 3.5 -3.5 1.932 -3.5 0 C -3.5 -1.932 -1.932 -3.5 0 -3.5 z" stroke-linecap="round" />
</g>
<g transform="matrix(1 0 0 1 31.27 59.65)" id="HutsL-22bw0live7YoZOM"  >
<path style="stroke: rgb(91,91,91); stroke-width: 0; stroke-dasharray: none; stroke-linecap: butt; stroke-dashoffset: 0; stroke-linejoin: miter; stroke-miterlimit: 4; fill: rgb(91,91,91); fill-rule: nonzero; opacity: 1;" vector-effect="non-scaling-stroke"  transform=" translate(0, 0)" d="M -4.57545 33.63222 C -4.57545 33.63222 -8.55467 30.107229999999998 -13.93257 30.397929999999995 C -14.15059 30.325259999999997 -16.9301 9.919529999999995 -12.78765 -4.397330000000004 C -12.49695 -4.397330000000004 -6.782449999999999 -3.162900000000004 -6.782449999999999 -3.162900000000004 C -6.782449999999999 -3.162900000000004 -2.831249999999999 -24.547930000000004 15.046650000000001 -33.63223000000001 C 10.32281 -29.344440000000006 -1.813819999999998 -22.175610000000006 -5.73823 -0.24146000000000356 C -9.58997 -0.9090500000000036 -13.87776 -1.0030600000000036 -12.278929999999999 28.563589999999998 C -5.956259999999999 29.06048 -4.575439999999999 33.63221 -4.575439999999999 33.63221 z" stroke-linecap="round" />
</g>
</svg>