<?xml version="1.0" encoding="UTF-8" standalone="no" ?>
<!DOCTYPE svg PUBLIC "-//W3C//DTD SVG 1.1//EN" "http://www.w3.org/Graphics/SVG/1.1/DTD/svg11.dtd">
<svg xmlns="http://www.w3.org/2000/svg" xmlns:xlink="http://www.w3.org/1999/xlink" version="1.1" width="109" height="120" viewBox="0 0 109 120" xml:space="preserve">
<desc>Created with Fabric.js 4.6.0</desc>
<defs>
</defs>
<g transform="matrix(-1.2 0 0 -1.02 -76.95 -23.54)" id="r_nEBa9MS17Dsp04SyxRO"  >
<path style="stroke: rgb(0,0,0); stroke-width: 0; stroke-dasharray: none; stroke-linecap: butt; stroke-dashoffset: 0; stroke-linejoin: miter; stroke-miterlimit: 4; fill: rgb(158,193,193); fill-rule: nonzero; opacity: 1;" vector-effect="non-scaling-stroke"  transform=" translate(0, 0)" d="M 37.58808 -8.92805 L -33.15388000000001 -9.39081 L -37.58807000000001 -11.76861 L -37.58807000000001 11.76861 L -33.15388000000001 -4.898059999999999 C -33.15388000000001 -4.898059999999999 16.065459999999995 -12.086579999999998 18.964009999999995 5.88443 C 18.964009999999995 6.17429 37.58807999999999 -8.92806 37.58807999999999 -8.92806 z" stroke-linecap="round" />
</g>
<g transform="matrix(0 0.99 1.01 0 96.29 36.98)" id="xSZplLlK5Mxa5E2PpE0u3"  >
<path style="stroke: rgb(0,0,0); stroke-width: 0; stroke-dasharray: none; stroke-linecap: butt; stroke-dashoffset: 0; stroke-linejoin: miter; stroke-miterlimit: 4; fill: rgb(158,193,193); fill-rule: nonzero; opacity: 1;" vector-effect="non-scaling-stroke"  transform=" translate(0, 0)" d="M -27.52237 5.89636 L 9.425190000000004 -46.390969999999996 L 20.125980000000006 -16.489419999999996 L 27.522370000000006 46.39096000000001 C 27.522370000000006 46.39096000000001 19.232760000000006 36.55425000000001 17.296620000000004 33.14479000000001 C 15.360480000000004 29.735340000000008 10.779230000000005 18.372670000000006 3.2424200000000045 -11.60067999999999 C -8.046199999999995 -17.67021999999999 -27.52238 5.896350000000009 -27.52238 5.896350000000009 z" stroke-linecap="round" />
</g>
<g transform="matrix(2.9 0 0 -0.41 95.83 40.19)" id="ffUlAbgTc1hZS0P217vwE"  >
<path style="stroke: rgb(0,0,0); stroke-width: 0; stroke-dasharray: none; stroke-linecap: butt; stroke-dashoffset: 0; stroke-linejoin: miter; stroke-miterlimit: 4; fill: rgb(0,0,0); fill-rule: nonzero; opacity: 1;" vector-effect="non-scaling-stroke"  transform=" translate(0, 0)" d="M -17.51385 -16.33965 C -17.43436 -16.8857 13.82217 -95.09573 16.26787 -88.25594000000001 C 17.99609 -83.42269000000002 17.52647 -73.10269000000001 17.19533 -65.71967000000001 L 17.19533 -65.71967000000001 C 16.90296 -59.201060000000005 16.14414 -54.26634000000001 15.20127 -52.75206000000001 C 10.152059999999999 -44.642770000000006 5.933689999999999 -37.54191000000001 -0.3661000000000012 -38.89703000000001 C -7.289840000000001 -40.38636000000001 -14.52706 -15.313230000000008 -14.52706 -15.313230000000008 L -2.3690700000000007 46.881759999999986 L -2.3690700000000007 46.881759999999986 C -2.2526600000000006 47.477279999999986 -2.0916000000000006 47.36029999999999 -1.9947300000000006 46.60986999999999 C -1.8978600000000005 45.859439999999985 -1.8959900000000005 44.714359999999985 -1.9904000000000006 43.948349999999984 L -5.242330000000001 17.561789999999984 L -5.242330000000001 17.561789999999984 C -5.944000000000001 11.866299999999985 -6.124300000000001 3.836969999999985 -5.706640000000001 -3.1159600000000154 C -5.288990000000001 -10.068900000000015 -4.346720000000001 -14.724690000000015 -3.280030000000001 -15.105930000000015 C 1.035379999999999 -16.648260000000015 7.043139999999998 -18.082490000000014 9.73386 -25.315330000000017 C 9.3184 -24.136570000000017 0.5062700000000007 -2.3844800000000177 0.1586199999999991 -0.2747600000000183 C -4.058620000000001 25.317079999999983 4.512209999999999 88.67970999999999 4.512209999999999 88.67970999999999 C 4.512209999999999 88.67970999999999 -14.612860000000001 7.271129999999985 -17.51385 -16.33966000000001 z" stroke-linecap="round" />
</g>
<g transform="matrix(0 1 1 0 89.28 51.57)" id="LD5hxTJyFSIseFaYNMFoE"  >
<path style="stroke: rgb(188,98,107); stroke-width: 0; stroke-dasharray: none; stroke-linecap: butt; stroke-dashoffset: 0; stroke-linejoin: miter; stroke-miterlimit: 4; fill: rgb(0,0,0); fill-rule: nonzero; opacity: 1;" vector-effect="non-scaling-stroke"  transform=" translate(-3.5, -3.5)" d="M 3.5 0 C 5.432 0 7 1.568 7 3.5 C 7 5.432 5.432 7 3.5 7 C 1.568 7 0 5.432 0 3.5 C 0 1.568 1.568 0 3.5 0 z" stroke-linecap="round" />
</g>
<g transform="matrix(0 0.71 0.71 0 77.15 47.44)" id="rBGDgu7RSORwvhJ-7Z4P1"  >
<path style="stroke: rgb(188,98,107); stroke-width: 0; stroke-dasharray: none; stroke-linecap: butt; stroke-dashoffset: 0; stroke-linejoin: miter; stroke-miterlimit: 4; fill: rgb(0,0,0); fill-rule: nonzero; opacity: 1;" vector-effect="non-scaling-stroke"  transform=" translate(0, 0)" d="M 0 -3.5 C 1.932 -3.5 3.5 -1.932 3.5 0 C 3.5 1.932 1.932 3.5 0 3.5 C -1.932 3.5 -3.5 1.932 -3.5 0 C -3.5 -1.932 -1.932 -3.5 0 -3.5 z" stroke-linecap="round" />
</g>
<g transform="matrix(0 0.99 1 0 67.74 37.18)" id="soiZbakc5X0zau2Y-T7Gk"  >
<path style="stroke: rgb(0,0,0); stroke-width: 0; stroke-dasharray: none; stroke-linecap: butt; stroke-dashoffset: 0; stroke-linejoin: miter; stroke-miterlimit: 4; fill: rgb(0,0,0); fill-rule: nonzero; opacity: 1;" vector-effect="non-scaling-stroke"  transform=" translate(0, 0)" d="M -10.35842 16.73506 C -10.50352 16.865650000000002 -10.724960000000001 16.86614 -10.870650000000001 16.73619 C -11.016340000000001 16.60625 -11.038860000000001 16.38815 -10.92275 16.23171 L 4.94407 -5.1469200000000015 C 4.94407 -5.1469200000000015 -2.12948 -4.877450000000001 -3.4094499999999996 -12.085730000000002 C -3.4094499999999996 -12.153100000000002 0.3805500000000004 -16.190710000000003 1.0939000000000005 -16.83332 C 1.1612700000000005 -16.76595 0.8918000000000006 -7.4019200000000005 9.986360000000001 -8.6819 C 10.12109 -8.547170000000001 10.996870000000001 -2.4841200000000008 10.996870000000001 -2.4841200000000008 z" stroke-linecap="round" />
</g>
<g transform="matrix(1.01 0 0 1 -82.65 63.39)" id="wwB8XZaE36qXPn8ezPyTk"  >
<path style="stroke: rgb(0,0,0); stroke-width: 0; stroke-dasharray: none; stroke-linecap: butt; stroke-dashoffset: 0; stroke-linejoin: miter; stroke-miterlimit: 4; fill: rgb(0,0,0); fill-rule: nonzero; opacity: 1;" vector-effect="non-scaling-stroke"  transform=" translate(0, 0)" d="M -20.07125 9.8297 C -20.07125 9.8297 -9.359879999999999 3.429820000000001 -3.83577 14.208560000000002 C -3.9705 14.141190000000002 20.07125 0.19620000000000282 20.07125 0.19620000000000282 C 20.07125 0.19620000000000282 -10.602800000000002 0.3450100000000028 -14.29204 0.19620000000000282 C -19.0421 -2.333559999999997 -20.07125 -14.208559999999997 -20.07125 -14.208559999999997 z" stroke-linecap="round" />
</g>
<g transform="matrix(0 -2.85 0.41 0 -62.45 28.48)" id="_GU7GpyqY5Q5Tvs-SaHqh"  >
<path style="stroke: rgb(0,0,0); stroke-width: 0; stroke-dasharray: none; stroke-linecap: butt; stroke-dashoffset: 0; stroke-linejoin: miter; stroke-miterlimit: 4; fill: rgb(0,0,0); fill-rule: nonzero; opacity: 1;" vector-effect="non-scaling-stroke"  transform=" translate(0, 0)" d="M -9.10792 64.88303 C -9.02843 64.33698000000001 5.6671499999999995 39.31237 5.80631 -5.075509999999994 C 5.89667 -33.90015 0.4525199999999998 -53.184099999999994 -3.383000000000001 -62.62882 L -3.383000000000001 -62.62882 C -3.4769900000000007 -62.86026 -3.527580000000001 -63.574949999999994 -3.497080000000001 -64.24025 C -3.466580000000001 -64.90555 -3.366080000000001 -65.2792 -3.270490000000001 -65.08273 C 1.4941099999999987 -55.28977 9.01442 -34.68304 9.10712 -5.075510000000001 C 9.24139 37.810719999999996 -7.562980000000001 68.23391000000001 -9.107919999999998 64.88302999999999 z" stroke-linecap="round" />
</g>
<g transform="matrix(1.02 0 0 1 -49.95 25.98)" id="ySBQ6LcsZvYjCJy1ll8d9"  >
<path style="stroke: rgb(0,0,0); stroke-width: 0; stroke-dasharray: none; stroke-linecap: butt; stroke-dashoffset: 0; stroke-linejoin: miter; stroke-miterlimit: 4; fill: rgb(0,0,0); fill-rule: nonzero; opacity: 1;" vector-effect="non-scaling-stroke"  transform=" translate(0, 0)" d="M -11.25566 -17.98643 L 3.902709999999999 -14.027149999999999 L 11.25565 -6.108599999999999 C 11.25565 -6.108599999999999 6.278269999999999 3.3936600000000006 11.25565 17.986420000000003 C 1.2925499999999985 -8.098699999999997 -11.255660000000002 -17.98643 -11.255660000000002 -17.98643 z" stroke-linecap="round" />
</g>
<g transform="matrix(-0.71 0 0 0.71 -38.47 8.12)" id="bP0MAMz4eWiNrkuoRn2ub"  >
<path style="stroke: rgb(188,98,107); stroke-width: 0; stroke-dasharray: none; stroke-linecap: butt; stroke-dashoffset: 0; stroke-linejoin: miter; stroke-miterlimit: 4; fill: rgb(0,0,0); fill-rule: nonzero; opacity: 1;" vector-effect="non-scaling-stroke"  transform=" translate(0, 0)" d="M 0 -3.5 C 1.932 -3.5 3.5 -1.932 3.5 0 C 3.5 1.932 1.932 3.5 0 3.5 C -1.932 3.5 -3.5 1.932 -3.5 0 C -3.5 -1.932 -1.932 -3.5 0 -3.5 z" stroke-linecap="round" />
</g>
<g transform="matrix(1.01 0 0 -0.98 -86.16 48.16)" id="t4LOgBzeENzwptThZB4ww"  >
<path style="stroke: rgb(0,0,0); stroke-width: 0; stroke-dasharray: none; stroke-linecap: butt; stroke-dashoffset: 0; stroke-linejoin: miter; stroke-miterlimit: 4; fill: rgb(91,91,91); fill-rule: nonzero; opacity: 1;" vector-effect="non-scaling-stroke"  transform=" translate(0, 0)" d="M -31.82232 4.95519 C -31.82232 4.95519 -19.75667 14.81026 -19.17696 -13.595529999999998 C -19.17696 -13.885389999999997 31.82231 -13.595529999999998 31.82231 -13.595529999999998 C 31.82231 -13.595529999999998 18.254420000000003 -7.978649999999998 12.323040000000002 13.724360000000003 C 12.178110000000002 13.724360000000003 10.206660000000003 6.549400000000003 10.206660000000003 6.549400000000003 C 10.206660000000003 6.549400000000003 15.424050000000003 -5.465029999999998 21.22115 -9.812859999999997 C 21.36608 -9.957789999999997 9.81192 -11.569099999999997 -16.749859999999998 -11.276689999999997 C -20.223259999999996 19.99884 -31.822319999999998 4.9551900000000035 -31.822319999999998 4.9551900000000035 z" stroke-linecap="round" />
</g>
<g transform="matrix(0 1 0.99 0 -110.97 8.12)" id="eE4Hal9XAnTNcDn1HAirx"  >
<path style="stroke: rgb(0,0,0); stroke-width: 0; stroke-dasharray: none; stroke-linecap: butt; stroke-dashoffset: 0; stroke-linejoin: miter; stroke-miterlimit: 4; fill: rgb(91,91,91); fill-rule: nonzero; opacity: 1;" vector-effect="non-scaling-stroke"  transform=" translate(0, 0)" d="M -27.38832 -27.77853 C -27.37156 -28.01456 -24.39418 -31.69668 -24.37637 -31.93487 C -24.352120000000003 -32.25919 -27.73744 -29.66051 -27.71122 -29.98886 C -27.78846 -30.02895 -40.48597 12.27524 -9.30639 26.153969999999997 C -4.1595 27.34135 6.35867 24.93153 6.35867 24.93153 C 6.35867 24.93153 11.28192 26.11073 8.00839 31.96191 C 7.9054 31.96191 21.795920000000002 32.18386 30.333979999999997 26.15398 C 30.23099 26.050990000000002 8.339109999999998 34.57825 9.780929999999998 21.70492 C 4.511389999999998 19.02205 -32.11188 38.75787 -27.388330000000003 -27.778529999999996 z" stroke-linecap="round" />
</g>
<g transform="matrix(-0.86 0 0 -0.86 4.58 49.93)" id="nH4HauPfAsmvRyievuUGA"  >
<path style="stroke: rgb(188,98,107); stroke-width: 0; stroke-dasharray: none; stroke-linecap: butt; stroke-dashoffset: 0; stroke-linejoin: miter; stroke-miterlimit: 4; fill: rgb(91,91,91); fill-rule: nonzero; opacity: 1;" vector-effect="non-scaling-stroke"  transform=" translate(0, 0)" d="M 0 -3.5 C 1.932 -3.5 3.5 -1.932 3.5 0 C 3.5 1.932 1.932 3.5 0 3.5 C -1.932 3.5 -3.5 1.932 -3.5 0 C -3.5 -1.932 -1.932 -3.5 0 -3.5 z" stroke-linecap="round" />
</g>
<g transform="matrix(-0.96 0.19 -0.19 -0.99 -40.95 71.85)" id="kBbn4CqR-JueUHwtXUsE5"  >
<path style="stroke: rgb(0,0,0); stroke-width: 0; stroke-dasharray: none; stroke-linecap: butt; stroke-dashoffset: 0; stroke-linejoin: miter; stroke-miterlimit: 4; fill: rgb(158,193,193); fill-rule: nonzero; opacity: 1;" vector-effect="non-scaling-stroke"  transform=" translate(0, 0)" d="M -4.14909 -15.64309 L 6.3417699999999995 -4.782530000000001 C 6.3417699999999995 -4.782530000000001 2.285939999999999 -1.973660000000001 7.79611 16.4291 C 6.7829999999999995 14.588129999999998 1.68905 4.372669999999998 3.2981 -4.3281600000000005 C 3.2981 -4.626130000000001 2.8748799999999997 -10.78311 -5.825950000000001 -12.21338 C -5.647170000000001 -12.45176 -8.08244 -12.36274 -7.76806 -16.429100000000002 C -6.212540000000001 -16.190720000000002 -4.14909 -15.643090000000003 -4.14909 -15.643090000000003 z" stroke-linecap="round" />
</g>
<g transform="matrix(0.45 -0.47 0.47 0.45 145.66 104.12)" id="BC1V8pql9oziuqCyCHuwZ"  >
<path style="stroke: rgb(188,98,107); stroke-width: 0; stroke-dasharray: none; stroke-linecap: butt; stroke-dashoffset: 0; stroke-linejoin: miter; stroke-miterlimit: 4; fill: rgb(158,193,193); fill-rule: nonzero; opacity: 1;" vector-effect="non-scaling-stroke"  transform=" translate(0, 0)" d="M 0 -3.5 C 1.932 -3.5 3.5 -1.932 3.5 0 C 3.5 1.932 1.932 3.5 0 3.5 C -1.932 3.5 -3.5 1.932 -3.5 0 C -3.5 -1.932 -1.932 -3.5 0 -3.5 z" stroke-linecap="round" />
</g>
<g transform="matrix(0.24 -0.25 0.25 0.24 151.57 109.07)" id="EY1LWF6rXPINnuXxdZBLg"  >
<path style="stroke: rgb(188,98,107); stroke-width: 0; stroke-dasharray: none; stroke-linecap: butt; stroke-dashoffset: 0; stroke-linejoin: miter; stroke-miterlimit: 4; fill: rgb(158,193,193); fill-rule: nonzero; opacity: 1;" vector-effect="non-scaling-stroke"  transform=" translate(0, 0)" d="M 0 -3.5 C 1.932 -3.5 3.5 -1.932 3.5 0 C 3.5 1.932 1.932 3.5 0 3.5 C -1.932 3.5 -3.5 1.932 -3.5 0 C -3.5 -1.932 -1.932 -3.5 0 -3.5 z" stroke-linecap="round" />
</g>
<g transform="matrix(1 0 0 1 -93 7.28)" id="raTz5Tw2b1RIBAGPfORg0"  >
<path style="stroke: rgb(0,0,0); stroke-width: 0; stroke-dasharray: none; stroke-linecap: butt; stroke-dashoffset: 0; stroke-linejoin: miter; stroke-miterlimit: 4; fill: rgb(158,193,193); fill-rule: nonzero; opacity: 1;" vector-effect="non-scaling-stroke"  transform=" translate(0, 0)" d="M -0.72791 -1.86851 L 1.96121 -1.86851 L 1.5161499999999999 1.7386900000000003 L -1.9612200000000002 1.8685100000000003 z" stroke-linecap="round" />
</g>
<g transform="matrix(-1.34 0 0 1 33.05 115.27)" id="Gt5gslNu9u22PthGfk6o9"  >
<path style="stroke: rgb(0,0,0); stroke-width: 0; stroke-dasharray: none; stroke-linecap: butt; stroke-dashoffset: 0; stroke-linejoin: miter; stroke-miterlimit: 4; fill: rgb(91,91,91); fill-rule: nonzero; opacity: 1;" vector-effect="non-scaling-stroke"  transform=" translate(0, 0)" d="M 19.47557 1.43544 L 23.44703 -4.66803 L 17.72606 0.3319700000000001 L -23.44703 0.02518000000000009 L -23.44703 4.6680399999999995 L -21.661320000000003 1.3347099999999994 z" stroke-linecap="round" />
</g>
<g transform="matrix(0.35 0 0 -0.35 42.97 43.73)" id="6INJ-otS7-2oqJcrvLNLI"  >
<path style="stroke: rgb(188,98,107); stroke-width: 0; stroke-dasharray: none; stroke-linecap: butt; stroke-dashoffset: 0; stroke-linejoin: miter; stroke-miterlimit: 4; fill: rgb(91,91,91); fill-rule: nonzero; opacity: 1;" vector-effect="non-scaling-stroke"  transform=" translate(0, 0)" d="M 0 -3.5 C 1.932 -3.5 3.5 -1.932 3.5 0 C 3.5 1.932 1.932 3.5 0 3.5 C -1.932 3.5 -3.5 1.932 -3.5 0 C -3.5 -1.932 -1.932 -3.5 0 -3.5 z" stroke-linecap="round" />
</g>
<g transform="matrix(1.09 0 0 -1 -91.45 98.8)" id="JDW95sqecwcz-_DIce_4R"  >
<path style="stroke: rgb(0,0,0); stroke-width: 0; stroke-dasharray: none; stroke-linecap: butt; stroke-dashoffset: 0; stroke-linejoin: miter; stroke-miterlimit: 4; fill: rgb(0,0,0); fill-rule: nonzero; opacity: 1;" vector-effect="non-scaling-stroke"  transform=" translate(0, 0)" d="M 0.01509 1.87993 C 0.01006 1.87854 0.00503 1.87714 0 1.8757400000000002 C -0.00503 1.8771400000000003 -0.01006 1.8785300000000003 -0.01509 1.87993 C -24.27867 8.67603 -25.61787 4.71593 -31.75525 -3.9900900000000004 C -31.99116 -4.324730000000001 -31.95291 -4.780410000000001 -31.66452 -5.07104 C -31.37613 -5.36167 -30.92077 -5.40346 -30.58431 -5.17016 C -25.16023 -1.40911 -18.05325 3.1823799999999993 -11.866609999999998 1.8799299999999999 C -9.443579999999997 1.3698199999999998 0.01509000000000249 -2.5707000000000004 0.01509000000000249 -2.5707000000000004 C 0.01509000000000249 -2.5707000000000004 9.443580000000003 1.3698199999999994 11.866610000000003 1.8799299999999999 C 18.053250000000002 3.18238 25.160230000000006 -1.40911 30.584310000000002 -5.17016 C 30.92077 -5.40346 31.376130000000003 -5.36167 31.664520000000003 -5.07104 C 31.952910000000003 -4.78041 31.991160000000004 -4.32473 31.755250000000004 -3.99009 C 25.617870000000003 4.71593 24.278670000000005 8.676029999999999 0.015090000000004267 1.8799300000000003 z" stroke-linecap="round" />
</g>
<g transform="matrix(1 0 0 -1 -57.02 88.38)" id="TNyLcC1tf79fZ2DVB9ls0"  >
<path style="stroke: rgb(0,0,0); stroke-width: 0; stroke-dasharray: none; stroke-linecap: butt; stroke-dashoffset: 0; stroke-linejoin: miter; stroke-miterlimit: 4; fill: rgb(158,193,193); fill-rule: nonzero; opacity: 1;" vector-effect="non-scaling-stroke"  transform=" translate(0, 0)" d="M -12.79762 11.72029 L -6.3690500000000005 7.0063 C -6.3690500000000005 7.0063 -3.8667100000000008 -12.99185 0.8951899999999995 -9.063279999999999 C 5.657089999999999 -5.134709999999998 12.797609999999999 -9.062549999999998 12.797609999999999 -9.062549999999998 C 12.797609999999999 -9.062549999999998 -3.6309600000000017 -15.537099999999999 -4.58334 -8.275199999999998 C -5.5357199999999995 -1.0132999999999983 -12.79763 11.720280000000002 -12.79763 11.720280000000002 z" stroke-linecap="round" />
</g>
<g transform="matrix(1 0 0 1 60.39 25.19)" id="5nt3TNaKXJqplCduWJ9z3"  >
<path style="stroke: rgb(0,0,0); stroke-width: 0; stroke-dasharray: none; stroke-linecap: butt; stroke-dashoffset: 0; stroke-linejoin: miter; stroke-miterlimit: 4; fill: rgb(158,193,193); fill-rule: nonzero; opacity: 1;" vector-effect="non-scaling-stroke"  transform=" translate(0, 0)" d="M 26.62371 -10.35657 L 6.020060000000001 2.4862400000000004 C 6.020060000000001 2.4862400000000004 -5.358549999999999 -6.744529999999999 -12.18129 3.9578100000000003 C -19.00403 14.66015 -14.31438 17.068179999999998 -14.31438 17.068179999999998 C -14.31438 17.068179999999998 -26.48829 11.048109999999998 -37.59197 13.589919999999998 C -37.59197 13.723699999999997 -34.648830000000004 8.238749999999998 -29.832770000000004 8.506309999999997 C -25.016720000000003 8.773869999999997 -15.919730000000003 17.472429999999996 -17.926420000000004 3.2918299999999974 C -17.926420000000004 3.1580499999999976 -11.772570000000004 -7.547200000000002 5.217389999999995 -10.356570000000003 C 5.618729999999995 -10.356570000000003 -2.4080300000000054 4.003629999999998 37.591969999999996 -17.068170000000002 C 37.591969999999996 -17.002850000000002 26.623709999999996 -10.356570000000001 26.623709999999996 -10.356570000000001 z" stroke-linecap="round" />
</g>
<g transform="matrix(1 0 0 1 132.41 89.6)" id="Iz-3I5v4osw9vU-1AhYha"  >
<path style="stroke: rgb(91,91,91); stroke-width: 0; stroke-dasharray: none; stroke-linecap: butt; stroke-dashoffset: 0; stroke-linejoin: miter; stroke-miterlimit: 4; fill: rgb(91,91,91); fill-rule: nonzero; opacity: 1;" vector-effect="non-scaling-stroke"  transform=" translate(0, 0)" d="M -33.11561 -26.78228 C -17.429989999999997 -24.52142 11.432880000000004 -19.33805 3.00479 -2.214310000000001 C -5.423299999999999 14.90944 9.02486 27.02191 21.46633 27.02191 C 33.9078 27.02191 33.10513 13.718009999999998 33.10513 13.718009999999998 C 33.10513 13.718009999999998 29.894430000000003 26.48679 18.255630000000004 21.804519999999997 C 6.616830000000004 17.122249999999998 3.913130000000004 6.018569999999997 10.735870000000004 -3.613540000000004 C 17.55861 -13.245650000000005 7.144920000000004 -23.391980000000004 7.151950000000004 -23.565430000000003 C 3.0118200000000037 -18.922830000000005 -19.503569999999996 -28.641800000000003 -33.11561 -26.782280000000004 z" stroke-linecap="round" />
</g>
<g transform="matrix(1.34 0 0 1 102.49 115.27)" id="f1jaP8SARY7j80o27cyRR"  >
<path style="stroke: rgb(0,0,0); stroke-width: 0; stroke-dasharray: none; stroke-linecap: butt; stroke-dashoffset: 0; stroke-linejoin: miter; stroke-miterlimit: 4; fill: rgb(91,91,91); fill-rule: nonzero; opacity: 1;" vector-effect="non-scaling-stroke"  transform=" translate(0, 0)" d="M 19.47557 1.43544 L 23.44703 -4.66803 L 17.72606 0.3319700000000001 L -23.44703 0.02518000000000009 L -23.44703 4.6680399999999995 L -21.661320000000003 1.3347099999999994 z" stroke-linecap="round" />
</g>
<g transform="matrix(1 0 0 1 39.76 75.22)" id="_Hw2Z5l7NO5vVIlrgVn8a"  >
<path style="stroke: rgb(0,0,0); stroke-width: 0; stroke-dasharray: none; stroke-linecap: butt; stroke-dashoffset: 0; stroke-linejoin: miter; stroke-miterlimit: 4; fill: rgb(158,193,193); fill-rule: nonzero; opacity: 1;" vector-effect="non-scaling-stroke"  transform=" translate(0, 0)" d="M -0.13966 -32.96469 C -0.13966 -32.96469 -13.383809999999999 -37.00712 -31.979119999999998 -31.254619999999996 C -32.112899999999996 -31.254619999999996 -24.62126 -23.582249999999995 -34.78848 -19.167529999999996 C -35.05604 -18.766189999999995 -10.03932 -24.384919999999994 -22.21323 -29.468529999999994 C -18.46741 -30.271209999999993 11.262179999999997 -29.222339999999996 24.773880000000002 -11.831039999999994 C 38.28559 5.560260000000007 23.940610000000003 21.473640000000003 23.940610000000003 21.473640000000003 C 23.940610000000003 21.473640000000003 31.432250000000003 23.909400000000005 30.495790000000003 34.34418 C 30.629570000000005 34.47796 38.923880000000004 8.52478 32.10114 -4.585589999999996 C 25.2784 -17.695959999999996 14.040940000000003 -25.971419999999995 -4.286819999999999 -30.787469999999995 C -3.2165899999999987 -32.39281999999999 -0.13965999999999834 -32.96469 -0.13965999999999834 -32.96469 z" stroke-linecap="round" />
</g>
<g transform="matrix(1 0 0 1 98.75 86.76)" id="manNTnoBvTAZDIW6Vs7QC"  >
<path style="stroke: rgb(0,0,0); stroke-width: 0; stroke-dasharray: none; stroke-linecap: butt; stroke-dashoffset: 0; stroke-linejoin: miter; stroke-miterlimit: 4; fill: rgb(91,91,91); fill-rule: nonzero; opacity: 1;" vector-effect="non-scaling-stroke"  transform=" translate(0, 0)" d="M -32.59567 29.85817 C -32.59567 29.85817 -34.851099999999995 24.56053 -34.20904 18.46101 C -33.566990000000004 12.361490000000002 -28.101290000000002 7.524040000000001 -31.95361 0.6219500000000018 C -35.80594 -6.2801399999999985 -27.67416 -21.82792 -27.67416 -21.82792 C -27.67416 -21.82792 -28.2618 -25.845329999999997 -35.16389 -29.858179999999997 C -31.63259 -29.537149999999997 35.16388 -9.166139999999999 35.16388 -9.166139999999999 L -26.335639999999998 -25.154829999999997 L -21.5966 -18.938679999999998 C -21.5966 -18.938679999999998 -30.34848 -13.962759999999998 -30.34848 -5.295019999999997 C -30.34848 3.372720000000003 -26.335639999999998 5.780420000000003 -26.335639999999998 5.780420000000003 z" stroke-linecap="round" />
</g>
<g transform="matrix(1 0 0 1 39.61 59.95)" id="u58xMSc6JR4JKtQwxmNnE"  >
<path style="stroke: rgb(0,0,0); stroke-width: 0; stroke-dasharray: none; stroke-linecap: butt; stroke-dashoffset: 0; stroke-linejoin: miter; stroke-miterlimit: 4; fill: rgb(158,193,193); fill-rule: nonzero; opacity: 1;" vector-effect="non-scaling-stroke"  transform=" translate(-34.64, -19.07)" d="M 30.50379 3.55723 C 48.83155 8.37328 60.06901 16.64874 66.89175 29.75911 C 68.15843 32.19311 68.90405 35.06978 69.27758 38.14 L 65.36054 38.14 C 65.33008 33.38567 63.84548 28.023850000000003 59.56449 22.51366 C 46.05279 5.1223600000000005 16.3232 4.073490000000003 12.577379999999998 4.876170000000002 C 24.751289999999997 9.959780000000002 -0.26543000000000205 15.578510000000001 0.0021299999999975228 15.177170000000002 C 10.169349999999998 10.762450000000001 2.6777099999999976 3.090080000000002 2.8114899999999974 3.090080000000002 C 21.406799999999997 -2.6624199999999982 34.650949999999995 1.3800100000000022 34.650949999999995 1.3800100000000022 C 34.650949999999995 1.3800100000000022 31.574019999999994 1.9518800000000023 30.503789999999995 3.5572300000000023 z" stroke-linecap="round" />
</g>
<g transform="matrix(0.73 -0.76 0.76 0.73 144.65 94.79)" id="pnKIKWhuitpwNYzJig5fN"  >
<path style="stroke: rgb(188,98,107); stroke-width: 0; stroke-dasharray: none; stroke-linecap: butt; stroke-dashoffset: 0; stroke-linejoin: miter; stroke-miterlimit: 4; fill: rgb(158,193,193); fill-rule: nonzero; opacity: 1;" vector-effect="non-scaling-stroke"  transform=" translate(0, 0)" d="M 0 -3.5 C 1.932 -3.5 3.5 -1.932 3.5 0 C 3.5 1.932 1.932 3.5 0 3.5 C -1.932 3.5 -3.5 1.932 -3.5 0 C -3.5 -1.932 -1.932 -3.5 0 -3.5 z" stroke-linecap="round" />
</g>
</svg>