<?xml version="1.0" encoding="UTF-8" standalone="no" ?>
<!DOCTYPE svg PUBLIC "-//W3C//DTD SVG 1.1//EN" "http://www.w3.org/Graphics/SVG/1.1/DTD/svg11.dtd">
<svg xmlns="http://www.w3.org/2000/svg" xmlns:xlink="http://www.w3.org/1999/xlink" version="1.1" width="109" height="100" viewBox="0 0 109 100" xml:space="preserve">
<desc>Created with Fabric.js 4.6.0</desc>
<defs>
</defs>
<g transform="matrix(1 0 0 1.02 39 18.53)" id="r_nEBa9MS17Dsp04SyxRO"  >
<path style="stroke: rgb(0,0,0); stroke-width: 0; stroke-dasharray: none; stroke-linecap: butt; stroke-dashoffset: 0; stroke-linejoin: miter; stroke-miterlimit: 4; fill: rgb(158,193,193); fill-rule: nonzero; opacity: 1;" vector-effect="non-scaling-stroke"  transform=" translate(0, 0)" d="M 35.98529 -9.39081 L -31.551099999999998 -9.39081 L -35.98529 -11.76861 L -35.98529 11.76861 L -31.551099999999998 -4.898059999999999 C -31.551099999999998 -4.898059999999999 17.869350000000004 -10.985019999999999 20.767900000000004 6.986000000000001 C 20.767900000000004 7.275860000000001 35.985290000000006 -9.390809999999998 35.985290000000006 -9.390809999999998 z" stroke-linecap="round" />
</g>
<g transform="matrix(0.99 0 0 1.01 45 72)" id="xSZplLlK5Mxa5E2PpE0u3"  >
<path style="stroke: rgb(0,0,0); stroke-width: 0; stroke-dasharray: none; stroke-linecap: butt; stroke-dashoffset: 0; stroke-linejoin: miter; stroke-miterlimit: 4; fill: rgb(158,193,193); fill-rule: nonzero; opacity: 1;" vector-effect="non-scaling-stroke"  transform=" translate(0, 0)" d="M -34.18881 10.78292 L 7.713540000000002 -23.84378 L 13.574480000000001 -6.328329999999998 L 34.18882 22.976370000000003 C 34.18882 22.976370000000003 16.2018 26.412090000000003 9.93666 19.608010000000004 C 3.67152 12.803930000000005 -12.631330000000002 10.782920000000004 -12.631330000000002 10.782920000000004 z" stroke-linecap="round" />
</g>
<g transform="matrix(0 2.9 -0.41 0 55 70.5)" id="ffUlAbgTc1hZS0P217vwE"  >
<path style="stroke: rgb(0,0,0); stroke-width: 0; stroke-dasharray: none; stroke-linecap: butt; stroke-dashoffset: 0; stroke-linejoin: miter; stroke-miterlimit: 4; fill: rgb(0,0,0); fill-rule: nonzero; opacity: 1;" vector-effect="non-scaling-stroke"  transform=" translate(0, 0)" d="M -9.29719 4.35424 C -9.2177 3.8081899999999997 5.477879999999999 -21.21642 5.617039999999999 -65.6043 C 5.706499999999999 -94.14086999999999 0.31759999999999966 -113.48759 -3.470320000000001 -122.84814 L -3.470320000000001 -122.84814 C -3.565660000000001 -123.08375 -3.617170000000001 -123.81505 -3.586460000000001 -124.49701 C -3.555750000000001 -125.17897 -3.453990000000001 -125.56325 -3.357040000000001 -125.36345 C 1.361359999999999 -115.63986 8.825879999999998 -94.97778 8.917849999999998 -65.6043 C 9.052119999999999 -22.718069999999997 -6.310390000000002 5.380670000000009 -6.310390000000002 5.380670000000009 L 2.6476799999999976 86.15160000000002 L 2.6476799999999976 86.15160000000002 C 2.7601799999999974 87.16594000000002 2.9604299999999975 87.44382000000002 3.118559999999998 86.80501000000001 C 3.2766899999999977 86.1662 3.345069999999998 84.80307 3.279359999999998 83.59972 L 0.8956199999999979 39.94706000000001 L 0.8956199999999979 39.94706000000001 C 0.4526999999999979 31.83187000000001 0.5352399999999979 22.74648000000001 1.121329999999998 15.101250000000007 C 1.7074299999999978 7.456020000000008 2.7378399999999976 2.023770000000008 3.939199999999998 0.24568000000000723 C 5.736479999999998 -2.4144099999999926 7.234469999999998 -4.837529999999993 9.297189999999997 -10.382249999999992 C 8.881729999999997 -9.203489999999992 8.198229999999997 -4.872999999999992 7.850569999999997 -2.763279999999992 C 3.6333299999999964 22.82856000000001 5.617039999999997 125.41624 5.617039999999997 125.41624 C 5.617039999999997 125.41624 -6.396200000000003 27.965019999999996 -9.297190000000004 4.354230000000001 z" stroke-linecap="round" />
</g>
<g transform="matrix(1 0 0 1 60.5 85.5)" id="LD5hxTJyFSIseFaYNMFoE"  >
<path style="stroke: rgb(188,98,107); stroke-width: 0; stroke-dasharray: none; stroke-linecap: butt; stroke-dashoffset: 0; stroke-linejoin: miter; stroke-miterlimit: 4; fill: rgb(0,0,0); fill-rule: nonzero; opacity: 1;" vector-effect="non-scaling-stroke"  transform=" translate(-3.5, -3.5)" d="M 3.5 0 C 5.432 0 7 1.568 7 3.5 C 7 5.432 5.432 7 3.5 7 C 1.568 7 0 5.432 0 3.5 C 0 1.568 1.568 0 3.5 0 z" stroke-linecap="round" />
</g>
<g transform="matrix(0.71 0 0 0.71 55.5 73.5)" id="rBGDgu7RSORwvhJ-7Z4P1"  >
<path style="stroke: rgb(188,98,107); stroke-width: 0; stroke-dasharray: none; stroke-linecap: butt; stroke-dashoffset: 0; stroke-linejoin: miter; stroke-miterlimit: 4; fill: rgb(0,0,0); fill-rule: nonzero; opacity: 1;" vector-effect="non-scaling-stroke"  transform=" translate(0, 0)" d="M 0 -3.5 C 1.932 -3.5 3.5 -1.932 3.5 0 C 3.5 1.932 1.932 3.5 0 3.5 C -1.932 3.5 -3.5 1.932 -3.5 0 C -3.5 -1.932 -1.932 -3.5 0 -3.5 z" stroke-linecap="round" />
</g>
<g transform="matrix(0.99 0 0 1 37.5 63)" id="soiZbakc5X0zau2Y-T7Gk"  >
<path style="stroke: rgb(0,0,0); stroke-width: 0; stroke-dasharray: none; stroke-linecap: butt; stroke-dashoffset: 0; stroke-linejoin: miter; stroke-miterlimit: 4; fill: rgb(0,0,0); fill-rule: nonzero; opacity: 1;" vector-effect="non-scaling-stroke"  transform=" translate(0, 0)" d="M -13.09811 14.02019 C -13.24845 14.09757 -13.43299 14.04706 -13.52298 13.90392 C -13.61297 13.760779999999999 -13.57848 13.572579999999999 -13.44358 13.47065 L 7.520160000000001 -2.36993 C 7.520160000000001 -2.36993 0.4466100000000006 -2.10046 -0.833359999999999 -9.30874 C -0.833359999999999 -9.37611 2.956640000000001 -13.413720000000001 3.669990000000001 -14.056329999999999 C 3.737360000000001 -13.988959999999999 3.467890000000001 -4.624929999999999 12.562450000000002 -5.904909999999999 C 12.697180000000001 -5.770179999999999 13.572960000000002 0.29287000000000063 13.572960000000002 0.29287000000000063 z" stroke-linecap="round" />
</g>
<g transform="matrix(1.01 0 0 1 19.5 55.8)" id="wwB8XZaE36qXPn8ezPyTk"  >
<path style="stroke: rgb(0,0,0); stroke-width: 0; stroke-dasharray: none; stroke-linecap: butt; stroke-dashoffset: 0; stroke-linejoin: miter; stroke-miterlimit: 4; fill: rgb(0,0,0); fill-rule: nonzero; opacity: 1;" vector-effect="non-scaling-stroke"  transform=" translate(0, 0)" d="M -16.33653 9.8297 C -16.33653 9.8297 -5.625159999999999 3.429820000000001 -0.10105000000000075 14.208560000000002 C -0.23578000000000074 14.141190000000002 16.33653 0.19620000000000282 16.33653 0.19620000000000282 C 16.33653 0.19620000000000282 -6.8680699999999995 0.3450100000000028 -10.557310000000001 0.19620000000000282 C -15.307370000000002 -2.333559999999997 -16.33652 -14.208559999999997 -16.33652 -14.208559999999997 z" stroke-linecap="round" />
</g>
<g transform="matrix(0 -2.85 0.41 0 79 31.5)" id="_GU7GpyqY5Q5Tvs-SaHqh"  >
<path style="stroke: rgb(0,0,0); stroke-width: 0; stroke-dasharray: none; stroke-linecap: butt; stroke-dashoffset: 0; stroke-linejoin: miter; stroke-miterlimit: 4; fill: rgb(0,0,0); fill-rule: nonzero; opacity: 1;" vector-effect="non-scaling-stroke"  transform=" translate(0, 0)" d="M -9.10792 64.88303 C -9.02843 64.33698000000001 5.6671499999999995 39.31237 5.80631 -5.075509999999994 C 5.89667 -33.90015 0.4525199999999998 -53.184099999999994 -3.383000000000001 -62.62882 L -3.383000000000001 -62.62882 C -3.4769900000000007 -62.86026 -3.527580000000001 -63.574949999999994 -3.497080000000001 -64.24025 C -3.466580000000001 -64.90555 -3.366080000000001 -65.2792 -3.270490000000001 -65.08273 C 1.4941099999999987 -55.28977 9.01442 -34.68304 9.10712 -5.075510000000001 C 9.24139 37.810719999999996 -7.562980000000001 68.23391000000001 -9.107919999999998 64.88302999999999 z" stroke-linecap="round" />
</g>
<g transform="matrix(1.02 0 0 1 91.5 29)" id="ySBQ6LcsZvYjCJy1ll8d9"  >
<path style="stroke: rgb(0,0,0); stroke-width: 0; stroke-dasharray: none; stroke-linecap: butt; stroke-dashoffset: 0; stroke-linejoin: miter; stroke-miterlimit: 4; fill: rgb(0,0,0); fill-rule: nonzero; opacity: 1;" vector-effect="non-scaling-stroke"  transform=" translate(0, 0)" d="M -11.25566 -17.98643 L 3.902709999999999 -14.027149999999999 L 11.25565 -6.108599999999999 C 11.25565 -6.108599999999999 6.278269999999999 3.3936600000000006 11.25565 17.986420000000003 C 1.2925499999999985 -8.098699999999997 -11.255660000000002 -17.98643 -11.255660000000002 -17.98643 z" stroke-linecap="round" />
</g>
<g transform="matrix(0.71 0 0 0.71 11.15 16.54)" id="bP0MAMz4eWiNrkuoRn2ub"  >
<path style="stroke: rgb(188,98,107); stroke-width: 0; stroke-dasharray: none; stroke-linecap: butt; stroke-dashoffset: 0; stroke-linejoin: miter; stroke-miterlimit: 4; fill: rgb(0,0,0); fill-rule: nonzero; opacity: 1;" vector-effect="non-scaling-stroke"  transform=" translate(0, 0)" d="M 0 -3.5 C 1.932 -3.5 3.5 -1.932 3.5 0 C 3.5 1.932 1.932 3.5 0 3.5 C -1.932 3.5 -3.5 1.932 -3.5 0 C -3.5 -1.932 -1.932 -3.5 0 -3.5 z" stroke-linecap="round" />
</g>
<g transform="matrix(1.01 0 0 0.98 39 15.03)" id="t4LOgBzeENzwptThZB4ww"  >
<path style="stroke: rgb(0,0,0); stroke-width: 0; stroke-dasharray: none; stroke-linecap: butt; stroke-dashoffset: 0; stroke-linejoin: miter; stroke-miterlimit: 4; fill: rgb(91,91,91); fill-rule: nonzero; opacity: 1;" vector-effect="non-scaling-stroke"  transform=" translate(0, 0)" d="M -31.82232 4.95519 C -31.82232 4.95519 -19.75667 14.81026 -19.17696 -13.595529999999998 C -19.17696 -13.885389999999997 31.82231 -13.595529999999998 31.82231 -13.595529999999998 C 31.82231 -13.595529999999998 18.254420000000003 -7.978649999999998 12.323040000000002 13.724360000000003 C 12.178110000000002 13.724360000000003 10.206660000000003 6.549400000000003 10.206660000000003 6.549400000000003 C 10.206660000000003 6.549400000000003 15.424050000000003 -5.465029999999998 21.22115 -9.812859999999997 C 21.36608 -9.957789999999997 9.81192 -11.569099999999997 -16.749859999999998 -11.276689999999997 C -20.223259999999996 19.99884 -31.822319999999998 4.9551900000000035 -31.822319999999998 4.9551900000000035 z" stroke-linecap="round" />
</g>
<g transform="matrix(1 0 0 0.99 81.92 76.25)" id="eE4Hal9XAnTNcDn1HAirx"  >
<path style="stroke: rgb(0,0,0); stroke-width: 0; stroke-dasharray: none; stroke-linecap: butt; stroke-dashoffset: 0; stroke-linejoin: miter; stroke-miterlimit: 4; fill: rgb(91,91,91); fill-rule: nonzero; opacity: 1;" vector-effect="non-scaling-stroke"  transform=" translate(0, 0)" d="M -23.07217 -19.96132 C -23.14941 -20.00141 -6.896650000000001 30.81167 14.11262 0.22465000000000046 C 14.11262 0.22465000000000046 17.71715 6.96135 17.71715 6.96135 C 17.71715 6.96135 8.26345 17.386680000000002 19.07705 19.96135 C 18.97406 19.96135 9.99316 14.4368 23.07246 3.726189999999999 C 22.96947 3.623199999999999 14.627559999999999 5.6829399999999985 16.06937 -7.190390000000001 C 14.83353 -6.057540000000001 1.5158899999999988 31.98402 -23.072160000000004 -19.96132 z" stroke-linecap="round" />
</g>
<g transform="matrix(0.86 0 0 0.86 101 93)" id="nH4HauPfAsmvRyievuUGA"  >
<path style="stroke: rgb(188,98,107); stroke-width: 0; stroke-dasharray: none; stroke-linecap: butt; stroke-dashoffset: 0; stroke-linejoin: miter; stroke-miterlimit: 4; fill: rgb(91,91,91); fill-rule: nonzero; opacity: 1;" vector-effect="non-scaling-stroke"  transform=" translate(0, 0)" d="M 0 -3.5 C 1.932 -3.5 3.5 -1.932 3.5 0 C 3.5 1.932 1.932 3.5 0 3.5 C -1.932 3.5 -3.5 1.932 -3.5 0 C -3.5 -1.932 -1.932 -3.5 0 -3.5 z" stroke-linecap="round" />
</g>
<g transform="matrix(0.98 0 0 1.01 98.78 31.32)" id="kBbn4CqR-JueUHwtXUsE5"  >
<path style="stroke: rgb(0,0,0); stroke-width: 0; stroke-dasharray: none; stroke-linecap: butt; stroke-dashoffset: 0; stroke-linejoin: miter; stroke-miterlimit: 4; fill: rgb(91,91,91); fill-rule: nonzero; opacity: 1;" vector-effect="non-scaling-stroke"  transform=" translate(0, 0)" d="M -4.14909 -15.64309 L 6.3417699999999995 -4.782530000000001 C 6.3417699999999995 -4.782530000000001 2.285939999999999 -1.973660000000001 7.79611 16.4291 C 6.7829999999999995 14.588129999999998 1.68905 4.372669999999998 3.2981 -4.3281600000000005 C 3.2981 -4.626130000000001 2.8748799999999997 -10.78311 -5.825950000000001 -12.21338 C -5.647170000000001 -12.45176 -8.08244 -12.36274 -7.76806 -16.429100000000002 C -6.212540000000001 -16.190720000000002 -4.14909 -15.643090000000003 -4.14909 -15.643090000000003 z" stroke-linecap="round" />
</g>
<g transform="matrix(0.65 0 0 0.65 97.73 26.27)" id="BC1V8pql9oziuqCyCHuwZ"  >
<path style="stroke: rgb(188,98,107); stroke-width: 0; stroke-dasharray: none; stroke-linecap: butt; stroke-dashoffset: 0; stroke-linejoin: miter; stroke-miterlimit: 4; fill: rgb(91,91,91); fill-rule: nonzero; opacity: 1;" vector-effect="non-scaling-stroke"  transform=" translate(0, 0)" d="M 0 -3.5 C 1.932 -3.5 3.5 -1.932 3.5 0 C 3.5 1.932 1.932 3.5 0 3.5 C -1.932 3.5 -3.5 1.932 -3.5 0 C -3.5 -1.932 -1.932 -3.5 0 -3.5 z" stroke-linecap="round" />
</g>
<g transform="matrix(0.35 0 0 0.35 95.44 22.05)" id="EY1LWF6rXPINnuXxdZBLg"  >
<path style="stroke: rgb(188,98,107); stroke-width: 0; stroke-dasharray: none; stroke-linecap: butt; stroke-dashoffset: 0; stroke-linejoin: miter; stroke-miterlimit: 4; fill: rgb(91,91,91); fill-rule: nonzero; opacity: 1;" vector-effect="non-scaling-stroke"  transform=" translate(0, 0)" d="M 0 -3.5 C 1.932 -3.5 3.5 -1.932 3.5 0 C 3.5 1.932 1.932 3.5 0 3.5 C -1.932 3.5 -3.5 1.932 -3.5 0 C -3.5 -1.932 -1.932 -3.5 0 -3.5 z" stroke-linecap="round" />
</g>
<g transform="matrix(1 0 0 1 19.82 10.83)" id="raTz5Tw2b1RIBAGPfORg0"  >
<path style="stroke: rgb(0,0,0); stroke-width: 0; stroke-dasharray: none; stroke-linecap: butt; stroke-dashoffset: 0; stroke-linejoin: miter; stroke-miterlimit: 4; fill: rgb(158,193,193); fill-rule: nonzero; opacity: 1;" vector-effect="non-scaling-stroke"  transform=" translate(0, 0)" d="M -0.72791 -1.86851 L 1.96121 -1.86851 L 1.5161499999999999 1.7386900000000003 L -1.9612200000000002 1.8685100000000003 z" stroke-linecap="round" />
</g>
<g transform="matrix(1 0 0 1 24.55 48.79)" id="Gt5gslNu9u22PthGfk6o9"  >
<path style="stroke: rgb(0,0,0); stroke-width: 0; stroke-dasharray: none; stroke-linecap: butt; stroke-dashoffset: 0; stroke-linejoin: miter; stroke-miterlimit: 4; fill: rgb(91,91,91); fill-rule: nonzero; opacity: 1;" vector-effect="non-scaling-stroke"  transform=" translate(0, 0)" d="M 9.28571 5.95238 L 23.92857 -9.28572 L 8.09524 4.642850000000001 L -23.928569999999997 4.642850000000001 L -23.928569999999997 9.285710000000002 L -22.14286 5.952380000000002 z" stroke-linecap="round" />
</g>
<g transform="matrix(0.35 0 0 0.35 8.67 71.72)" id="6INJ-otS7-2oqJcrvLNLI"  >
<path style="stroke: rgb(188,98,107); stroke-width: 0; stroke-dasharray: none; stroke-linecap: butt; stroke-dashoffset: 0; stroke-linejoin: miter; stroke-miterlimit: 4; fill: rgb(91,91,91); fill-rule: nonzero; opacity: 1;" vector-effect="non-scaling-stroke"  transform=" translate(0, 0)" d="M 0 -3.5 C 1.932 -3.5 3.5 -1.932 3.5 0 C 3.5 1.932 1.932 3.5 0 3.5 C -1.932 3.5 -3.5 1.932 -3.5 0 C -3.5 -1.932 -1.932 -3.5 0 -3.5 z" stroke-linecap="round" />
</g>
</svg>