<?xml version="1.0" encoding="UTF-8" standalone="no" ?>
<!DOCTYPE svg PUBLIC "-//W3C//DTD SVG 1.1//EN" "http://www.w3.org/Graphics/SVG/1.1/DTD/svg11.dtd">
<svg xmlns="http://www.w3.org/2000/svg" xmlns:xlink="http://www.w3.org/1999/xlink" version="1.1" width="68" height="100" viewBox="0 0 68 100" xml:space="preserve">
<desc>Created with Fabric.js 4.6.0</desc>
<defs>
</defs>
<g transform="matrix(1 0 0 1.02 22.45 23.23)" id="r_nEBa9MS17Dsp04SyxRO"  >
<path style="stroke: rgb(0,0,0); stroke-width: 0; stroke-dasharray: none; stroke-linecap: butt; stroke-dashoffset: 0; stroke-linejoin: miter; stroke-miterlimit: 4; fill: rgb(158,193,193); fill-rule: nonzero; opacity: 1;" vector-effect="non-scaling-stroke"  transform=" translate(0, 0)" d="M 12.65196 -13.99736 L 1.3060500000000008 -17.33946 C 1.3060500000000008 -17.33946 1.6708800000000008 -13.677129999999998 -1.8186199999999992 -10.32369 C -5.308119999999999 -6.970249999999999 -12.65195 -3.925699999999999 -12.65195 -3.925699999999999 L -12.65195 17.339470000000002 C -12.65195 17.339470000000002 -3.916359999999999 -8.472039999999996 -2.565429999999999 2.3794600000000017 C -2.565429999999999 2.6693200000000017 12.65196 -13.997349999999997 12.65196 -13.997349999999997 z" stroke-linecap="round" />
</g>
<g transform="matrix(0.99 0 0 1.01 25.36 70.17)" id="xSZplLlK5Mxa5E2PpE0u3"  >
<path style="stroke: rgb(0,0,0); stroke-width: 0; stroke-dasharray: none; stroke-linecap: butt; stroke-dashoffset: 0; stroke-linejoin: miter; stroke-miterlimit: 4; fill: rgb(158,193,193); fill-rule: nonzero; opacity: 1;" vector-effect="non-scaling-stroke"  transform=" translate(0, 0)" d="M -20.84105 -25.94464 C -16.0457 -25.86822 -12.72899 -22.0282 -12.72899 -22.0282 L -6.868049999999999 -4.512749999999997 C -6.868049999999999 -4.512749999999997 6.057860000000001 17.562710000000003 20.84105 23.597760000000005 C 20.47272 24.092970000000005 15.84104 30.556950000000004 2.7216400000000007 19.627460000000006 C -10.39776 8.697970000000007 -12.769639999999999 -23.545809999999996 -20.84105 -25.944639999999993 z" stroke-linecap="round" />
</g>
<g transform="matrix(0 2.9 -0.41 0 33.57 69.91)" id="ffUlAbgTc1hZS0P217vwE"  >
<path style="stroke: rgb(0,0,0); stroke-width: 0; stroke-dasharray: none; stroke-linecap: butt; stroke-dashoffset: 0; stroke-linejoin: miter; stroke-miterlimit: 4; fill: rgb(0,0,0); fill-rule: nonzero; opacity: 1;" vector-effect="non-scaling-stroke"  transform=" translate(0, 0)" d="M -9.09489 49.35018 C -9.0154 48.80413 5.68018 23.77952 5.81934 -20.608359999999998 C 5.9087700000000005 -49.136269999999996 0.5279300000000005 -68.46475 -3.2605199999999996 -77.82915 L -3.2605199999999996 -77.82915 C -3.3562 -78.06565 -3.4078199999999996 -78.79825 -3.3769099999999996 -79.48098999999999 C -3.3459999999999996 -80.16372 -3.2438199999999995 -80.54799999999999 -3.1465199999999998 -80.34742999999999 C 1.5719200000000004 -70.62156999999999 9.028220000000001 -49.97182999999999 9.120149999999999 -20.60835999999999 C 9.25442 22.277870000000007 -6.108090000000001 50.376610000000014 -6.108090000000001 50.376610000000014 C -6.108090000000001 50.376610000000014 -8.9229 54.23441000000001 -9.09488 80.40057000000002 C -9.10266 78.40180000000002 -9.14956 51.76468000000001 -9.09488 49.350180000000016 z" stroke-linecap="round" />
</g>
<g transform="matrix(1 0 0 1 -57.86 90.5)" id="LD5hxTJyFSIseFaYNMFoE"  >
<path style="stroke: rgb(188,98,107); stroke-width: 0; stroke-dasharray: none; stroke-linecap: butt; stroke-dashoffset: 0; stroke-linejoin: miter; stroke-miterlimit: 4; fill: rgb(0,0,0); fill-rule: nonzero; opacity: 1;" vector-effect="non-scaling-stroke"  transform=" translate(-3.5, -3.5)" d="M 3.5 0 C 5.432 0 7 1.568 7 3.5 C 7 5.432 5.432 7 3.5 7 C 1.568 7 0 5.432 0 3.5 C 0 1.568 1.568 0 3.5 0 z" stroke-linecap="round" />
</g>
<g transform="matrix(0.71 0 0 0.71 4.72 49.47)" id="rBGDgu7RSORwvhJ-7Z4P1"  >
<path style="stroke: rgb(188,98,107); stroke-width: 0; stroke-dasharray: none; stroke-linecap: butt; stroke-dashoffset: 0; stroke-linejoin: miter; stroke-miterlimit: 4; fill: rgb(0,0,0); fill-rule: nonzero; opacity: 1;" vector-effect="non-scaling-stroke"  transform=" translate(0, 0)" d="M 0 -3.5 C 1.932 -3.5 3.5 -1.932 3.5 0 C 3.5 1.932 1.932 3.5 0 3.5 C -1.932 3.5 -3.5 1.932 -3.5 0 C -3.5 -1.932 -1.932 -3.5 0 -3.5 z" stroke-linecap="round" />
</g>
<g transform="matrix(0.68 -0.72 0.73 0.68 8.99 19.88)" id="soiZbakc5X0zau2Y-T7Gk"  >
<path style="stroke: rgb(0,0,0); stroke-width: 0; stroke-dasharray: none; stroke-linecap: butt; stroke-dashoffset: 0; stroke-linejoin: miter; stroke-miterlimit: 4; fill: rgb(0,0,0); fill-rule: nonzero; opacity: 1;" vector-effect="non-scaling-stroke"  transform=" translate(0, 0)" d="M -15.01775 14.90408 L 8.964940000000002 -3.217679999999998 C 8.964940000000002 -3.217679999999998 1.8913900000000021 -2.9482099999999978 0.6114200000000025 -10.156489999999998 C 0.6114200000000025 -10.223859999999998 4.4014200000000026 -14.26147 5.114770000000003 -14.904079999999997 C 5.182140000000003 -14.836709999999997 4.912670000000003 -5.472679999999997 14.007230000000003 -6.752659999999997 C 14.141960000000003 -6.617929999999997 15.017740000000003 -0.5548799999999972 15.017740000000003 -0.5548799999999972 z" stroke-linecap="round" />
</g>
<g transform="matrix(1.01 0 0 1 -61.95 69.91)" id="wwB8XZaE36qXPn8ezPyTk"  >
<path style="stroke: rgb(0,0,0); stroke-width: 0; stroke-dasharray: none; stroke-linecap: butt; stroke-dashoffset: 0; stroke-linejoin: miter; stroke-miterlimit: 4; fill: rgb(0,0,0); fill-rule: nonzero; opacity: 1;" vector-effect="non-scaling-stroke"  transform=" translate(0, 0)" d="M -16.33653 9.8297 C -16.33653 9.8297 -5.625159999999999 3.429820000000001 -0.10105000000000075 14.208560000000002 C -0.23578000000000074 14.141190000000002 16.33653 0.19620000000000282 16.33653 0.19620000000000282 C 16.33653 0.19620000000000282 -6.8680699999999995 0.3450100000000028 -10.557310000000001 0.19620000000000282 C -15.307370000000002 -2.333559999999997 -16.33652 -14.208559999999997 -16.33652 -14.208559999999997 z" stroke-linecap="round" />
</g>
<g transform="matrix(0 -2.85 0.41 0 39.12 31.5)" id="_GU7GpyqY5Q5Tvs-SaHqh"  >
<path style="stroke: rgb(0,0,0); stroke-width: 0; stroke-dasharray: none; stroke-linecap: butt; stroke-dashoffset: 0; stroke-linejoin: miter; stroke-miterlimit: 4; fill: rgb(0,0,0); fill-rule: nonzero; opacity: 1;" vector-effect="non-scaling-stroke"  transform=" translate(0, 0)" d="M -9.10792 64.88303 C -9.02843 64.33698000000001 5.6671499999999995 39.31237 5.80631 -5.075509999999994 C 5.89667 -33.90015 0.4525199999999998 -53.184099999999994 -3.383000000000001 -62.62882 L -3.383000000000001 -62.62882 C -3.4769900000000007 -62.86026 -3.527580000000001 -63.574949999999994 -3.497080000000001 -64.24025 C -3.466580000000001 -64.90555 -3.366080000000001 -65.2792 -3.270490000000001 -65.08273 C 1.4941099999999987 -55.28977 9.01442 -34.68304 9.10712 -5.075510000000001 C 9.24139 37.810719999999996 -7.562980000000001 68.23391000000001 -9.107919999999998 64.88302999999999 z" stroke-linecap="round" />
</g>
<g transform="matrix(1.02 0 0 1 51.62 29)" id="ySBQ6LcsZvYjCJy1ll8d9"  >
<path style="stroke: rgb(0,0,0); stroke-width: 0; stroke-dasharray: none; stroke-linecap: butt; stroke-dashoffset: 0; stroke-linejoin: miter; stroke-miterlimit: 4; fill: rgb(0,0,0); fill-rule: nonzero; opacity: 1;" vector-effect="non-scaling-stroke"  transform=" translate(0, 0)" d="M -11.25566 -17.98643 L 3.902709999999999 -14.027149999999999 L 11.25565 -6.108599999999999 C 11.25565 -6.108599999999999 6.278269999999999 3.3936600000000006 11.25565 17.986420000000003 C 1.2925499999999985 -8.098699999999997 -11.255660000000002 -17.98643 -11.255660000000002 -17.98643 z" stroke-linecap="round" />
</g>
<g transform="matrix(0.71 0 0 0.71 -55.38 15.18)" id="bP0MAMz4eWiNrkuoRn2ub"  >
<path style="stroke: rgb(188,98,107); stroke-width: 0; stroke-dasharray: none; stroke-linecap: butt; stroke-dashoffset: 0; stroke-linejoin: miter; stroke-miterlimit: 4; fill: rgb(0,0,0); fill-rule: nonzero; opacity: 1;" vector-effect="non-scaling-stroke"  transform=" translate(0, 0)" d="M 0 -3.5 C 1.932 -3.5 3.5 -1.932 3.5 0 C 3.5 1.932 1.932 3.5 0 3.5 C -1.932 3.5 -3.5 1.932 -3.5 0 C -3.5 -1.932 -1.932 -3.5 0 -3.5 z" stroke-linecap="round" />
</g>
<g transform="matrix(0.3 0.97 -0.94 0.29 7.77 77.29)" id="t4LOgBzeENzwptThZB4ww"  >
<path style="stroke: rgb(0,0,0); stroke-width: 0; stroke-dasharray: none; stroke-linecap: butt; stroke-dashoffset: 0; stroke-linejoin: miter; stroke-miterlimit: 4; fill: rgb(91,91,91); fill-rule: nonzero; opacity: 1;" vector-effect="non-scaling-stroke"  transform=" translate(0, 0)" d="M -25.49964 -9.08475 C -25.49964 -9.37461 25.499630000000003 -9.08475 25.499630000000003 -9.08475 C 25.499630000000003 -9.08475 14.313580000000004 -2.71493 10.419020000000003 9.21358 C 10.274090000000003 9.21358 8.302640000000004 2.0386200000000008 8.302640000000004 2.0386200000000008 C 8.302640000000004 2.0386200000000008 9.896860000000004 -1.9738799999999994 14.898470000000003 -5.302079999999999 C 15.043400000000004 -5.447009999999999 3.4892400000000023 -7.058319999999999 -23.072539999999996 -6.765909999999999 C -23.265669999999997 -7.738049999999999 -24.697339999999997 -8.18958 -25.499639999999996 -9.08475 z" stroke-linecap="round" />
</g>
<g transform="matrix(1 0 0 0.99 42.04 76.25)" id="eE4Hal9XAnTNcDn1HAirx"  >
<path style="stroke: rgb(0,0,0); stroke-width: 0; stroke-dasharray: none; stroke-linecap: butt; stroke-dashoffset: 0; stroke-linejoin: miter; stroke-miterlimit: 4; fill: rgb(91,91,91); fill-rule: nonzero; opacity: 1;" vector-effect="non-scaling-stroke"  transform=" translate(0, 0)" d="M -23.07217 -19.96132 C -23.14941 -20.00141 -6.896650000000001 30.81167 14.11262 0.22465000000000046 C 14.11262 0.22465000000000046 17.71715 6.96135 17.71715 6.96135 C 17.71715 6.96135 8.26345 17.386680000000002 19.07705 19.96135 C 18.97406 19.96135 9.99316 14.4368 23.07246 3.726189999999999 C 22.96947 3.623199999999999 14.627559999999999 5.6829399999999985 16.06937 -7.190390000000001 C 14.83353 -6.057540000000001 1.5158899999999988 31.98402 -23.072160000000004 -19.96132 z" stroke-linecap="round" />
</g>
<g transform="matrix(0.86 0 0 0.86 61.12 93)" id="nH4HauPfAsmvRyievuUGA"  >
<path style="stroke: rgb(188,98,107); stroke-width: 0; stroke-dasharray: none; stroke-linecap: butt; stroke-dashoffset: 0; stroke-linejoin: miter; stroke-miterlimit: 4; fill: rgb(91,91,91); fill-rule: nonzero; opacity: 1;" vector-effect="non-scaling-stroke"  transform=" translate(0, 0)" d="M 0 -3.5 C 1.932 -3.5 3.5 -1.932 3.5 0 C 3.5 1.932 1.932 3.5 0 3.5 C -1.932 3.5 -3.5 1.932 -3.5 0 C -3.5 -1.932 -1.932 -3.5 0 -3.5 z" stroke-linecap="round" />
</g>
<g transform="matrix(0.98 0 0 1.01 58.9 31.32)" id="kBbn4CqR-JueUHwtXUsE5"  >
<path style="stroke: rgb(0,0,0); stroke-width: 0; stroke-dasharray: none; stroke-linecap: butt; stroke-dashoffset: 0; stroke-linejoin: miter; stroke-miterlimit: 4; fill: rgb(91,91,91); fill-rule: nonzero; opacity: 1;" vector-effect="non-scaling-stroke"  transform=" translate(0, 0)" d="M -4.14909 -15.64309 L 6.3417699999999995 -4.782530000000001 C 6.3417699999999995 -4.782530000000001 2.285939999999999 -1.973660000000001 7.79611 16.4291 C 6.7829999999999995 14.588129999999998 1.68905 4.372669999999998 3.2981 -4.3281600000000005 C 3.2981 -4.626130000000001 2.8748799999999997 -10.78311 -5.825950000000001 -12.21338 C -5.647170000000001 -12.45176 -8.08244 -12.36274 -7.76806 -16.429100000000002 C -6.212540000000001 -16.190720000000002 -4.14909 -15.643090000000003 -4.14909 -15.643090000000003 z" stroke-linecap="round" />
</g>
<g transform="matrix(0.65 0 0 0.65 57.85 26.27)" id="BC1V8pql9oziuqCyCHuwZ"  >
<path style="stroke: rgb(188,98,107); stroke-width: 0; stroke-dasharray: none; stroke-linecap: butt; stroke-dashoffset: 0; stroke-linejoin: miter; stroke-miterlimit: 4; fill: rgb(91,91,91); fill-rule: nonzero; opacity: 1;" vector-effect="non-scaling-stroke"  transform=" translate(0, 0)" d="M 0 -3.5 C 1.932 -3.5 3.5 -1.932 3.5 0 C 3.5 1.932 1.932 3.5 0 3.5 C -1.932 3.5 -3.5 1.932 -3.5 0 C -3.5 -1.932 -1.932 -3.5 0 -3.5 z" stroke-linecap="round" />
</g>
<g transform="matrix(0.35 0 0 0.35 55.56 22.05)" id="EY1LWF6rXPINnuXxdZBLg"  >
<path style="stroke: rgb(188,98,107); stroke-width: 0; stroke-dasharray: none; stroke-linecap: butt; stroke-dashoffset: 0; stroke-linejoin: miter; stroke-miterlimit: 4; fill: rgb(91,91,91); fill-rule: nonzero; opacity: 1;" vector-effect="non-scaling-stroke"  transform=" translate(0, 0)" d="M 0 -3.5 C 1.932 -3.5 3.5 -1.932 3.5 0 C 3.5 1.932 1.932 3.5 0 3.5 C -1.932 3.5 -3.5 1.932 -3.5 0 C -3.5 -1.932 -1.932 -3.5 0 -3.5 z" stroke-linecap="round" />
</g>
<g transform="matrix(1 0 0 1 -57.34 34.52)" id="raTz5Tw2b1RIBAGPfORg0"  >
<path style="stroke: rgb(0,0,0); stroke-width: 0; stroke-dasharray: none; stroke-linecap: butt; stroke-dashoffset: 0; stroke-linejoin: miter; stroke-miterlimit: 4; fill: rgb(158,193,193); fill-rule: nonzero; opacity: 1;" vector-effect="non-scaling-stroke"  transform=" translate(0, 0)" d="M -0.72791 -1.86851 L 1.96121 -1.86851 L 1.5161499999999999 1.7386900000000003 L -1.9612200000000002 1.8685100000000003 z" stroke-linecap="round" />
</g>
<g transform="matrix(0 1.02 -1.4 0 -70.32 64.4)" id="Gt5gslNu9u22PthGfk6o9"  >
<path style="stroke: rgb(0,0,0); stroke-width: 0; stroke-dasharray: none; stroke-linecap: butt; stroke-dashoffset: 0; stroke-linejoin: miter; stroke-miterlimit: 4; fill: rgb(91,91,91); fill-rule: nonzero; opacity: 1;" vector-effect="non-scaling-stroke"  transform=" translate(0, 0)" d="M 9.28571 5.95238 L 23.92857 -9.28572 L 8.09524 4.642850000000001 L -23.928569999999997 4.642850000000001 L -23.928569999999997 9.285710000000002 L -22.14286 5.952380000000002 z" stroke-linecap="round" />
</g>
<g transform="matrix(0.35 0 0 0.35 7.77 5.54)" id="6INJ-otS7-2oqJcrvLNLI"  >
<path style="stroke: rgb(188,98,107); stroke-width: 0; stroke-dasharray: none; stroke-linecap: butt; stroke-dashoffset: 0; stroke-linejoin: miter; stroke-miterlimit: 4; fill: rgb(91,91,91); fill-rule: nonzero; opacity: 1;" vector-effect="non-scaling-stroke"  transform=" translate(0, 0)" d="M 0 -3.5 C 1.932 -3.5 3.5 -1.932 3.5 0 C 3.5 1.932 1.932 3.5 0 3.5 C -1.932 3.5 -3.5 1.932 -3.5 0 C -3.5 -1.932 -1.932 -3.5 0 -3.5 z" stroke-linecap="round" />
</g>
</svg>