<?xml version="1.0" encoding="UTF-8" standalone="no" ?>
<!DOCTYPE svg PUBLIC "-//W3C//DTD SVG 1.1//EN" "http://www.w3.org/Graphics/SVG/1.1/DTD/svg11.dtd">
<svg xmlns="http://www.w3.org/2000/svg" xmlns:xlink="http://www.w3.org/1999/xlink" version="1.1" width="100" height="100" viewBox="0 0 100 100" xml:space="preserve">
<desc>Created with Fabric.js 4.6.0</desc>
<defs>
</defs>
<g transform="matrix(1 0 0 1.02 27.58 24.44)" id="r_nEBa9MS17Dsp04SyxRO"  >
<path style="stroke: rgb(0,0,0); stroke-width: 0; stroke-dasharray: none; stroke-linecap: butt; stroke-dashoffset: 0; stroke-linejoin: miter; stroke-miterlimit: 4; fill: rgb(158,193,193); fill-rule: nonzero; opacity: 1;" vector-effect="non-scaling-stroke"  transform=" translate(0, 0)" d="M 12.65196 -13.99736 L 1.3060500000000008 -17.33946 C 1.3060500000000008 -17.33946 1.6708800000000008 -13.677129999999998 -1.8186199999999992 -10.32369 C -5.308119999999999 -6.970249999999999 -12.65195 -3.925699999999999 -12.65195 -3.925699999999999 L -12.65195 17.339470000000002 C -12.65195 17.339470000000002 -3.916359999999999 -8.472039999999996 -2.565429999999999 2.3794600000000017 C -2.565429999999999 2.6693200000000017 12.65196 -13.997349999999997 12.65196 -13.997349999999997 z" stroke-linecap="round" />
</g>
<g transform="matrix(1.52 0 0 1.01 35.73 70.94)" id="xSZplLlK5Mxa5E2PpE0u3"  >
<path style="stroke: rgb(0,0,0); stroke-width: 0; stroke-dasharray: none; stroke-linecap: butt; stroke-dashoffset: 0; stroke-linejoin: miter; stroke-miterlimit: 4; fill: rgb(158,193,193); fill-rule: nonzero; opacity: 1;" vector-effect="non-scaling-stroke"  transform=" translate(0, 0)" d="M -20.84105 -25.94464 C -16.0457 -25.86822 -10.535689999999999 -24.01502 -10.535689999999999 -24.01502 L -4.674749999999999 -5.837299999999999 C -4.674749999999999 -5.837299999999999 6.057870000000002 17.5627 20.84105 23.59776 C 20.47272 24.09297 15.84104 30.55695 2.7216400000000007 19.62746 C -10.39776 8.69797 -12.769639999999999 -23.545810000000003 -20.84105 -25.94464 z" stroke-linecap="round" />
</g>
<g transform="matrix(0 2.9 -0.61 0 48.66 70.68)" id="ffUlAbgTc1hZS0P217vwE"  >
<path style="stroke: rgb(0,0,0); stroke-width: 0; stroke-dasharray: none; stroke-linecap: butt; stroke-dashoffset: 0; stroke-linejoin: miter; stroke-miterlimit: 4; fill: rgb(0,0,0); fill-rule: nonzero; opacity: 1;" vector-effect="non-scaling-stroke"  transform=" translate(0, 0)" d="M -9.09489 45.85254 C -9.0154 45.30649 5.68018 20.281879999999997 5.81934 -24.106 C 5.89634 -48.66727 2.6911500000000004 -63.616420000000005 -0.81759 -73.12075 L -0.81759 -73.12075 C -1.01532 -73.65634 -1.08925 -74.84158000000001 -0.98512 -75.8064 C -0.8809899999999999 -76.77122 -0.63592 -77.17163 -0.42982 -76.7137 C 3.93272 -67.02081 9.04043 -49.56748 9.12015 -24.106010000000005 C 9.254420000000001 18.780219999999993 -6.108089999999999 46.87896 -6.108089999999999 46.87896 C -6.108089999999999 46.87896 -8.922899999999998 50.73676 -9.09488 76.90292 C -9.10266 74.90415 -9.14956 48.26702999999999 -9.09488 45.852529999999994 z" stroke-linecap="round" />
</g>
<g transform="matrix(1 0 0 1 -57.86 91.51)" id="LD5hxTJyFSIseFaYNMFoE"  >
<path style="stroke: rgb(188,98,107); stroke-width: 0; stroke-dasharray: none; stroke-linecap: butt; stroke-dashoffset: 0; stroke-linejoin: miter; stroke-miterlimit: 4; fill: rgb(0,0,0); fill-rule: nonzero; opacity: 1;" vector-effect="non-scaling-stroke"  transform=" translate(-3.5, -3.5)" d="M 3.5 0 C 5.432 0 7 1.568 7 3.5 C 7 5.432 5.432 7 3.5 7 C 1.568 7 0 5.432 0 3.5 C 0 1.568 1.568 0 3.5 0 z" stroke-linecap="round" />
</g>
<g transform="matrix(0.71 0 0 0.71 6.43 50.24)" id="rBGDgu7RSORwvhJ-7Z4P1"  >
<path style="stroke: rgb(188,98,107); stroke-width: 0; stroke-dasharray: none; stroke-linecap: butt; stroke-dashoffset: 0; stroke-linejoin: miter; stroke-miterlimit: 4; fill: rgb(0,0,0); fill-rule: nonzero; opacity: 1;" vector-effect="non-scaling-stroke"  transform=" translate(0, 0)" d="M 0 -3.5 C 1.932 -3.5 3.5 -1.932 3.5 0 C 3.5 1.932 1.932 3.5 0 3.5 C -1.932 3.5 -3.5 1.932 -3.5 0 C -3.5 -1.932 -1.932 -3.5 0 -3.5 z" stroke-linecap="round" />
</g>
<g transform="matrix(0.68 -0.72 0.73 0.68 14.12 21.09)" id="soiZbakc5X0zau2Y-T7Gk"  >
<path style="stroke: rgb(0,0,0); stroke-width: 0; stroke-dasharray: none; stroke-linecap: butt; stroke-dashoffset: 0; stroke-linejoin: miter; stroke-miterlimit: 4; fill: rgb(0,0,0); fill-rule: nonzero; opacity: 1;" vector-effect="non-scaling-stroke"  transform=" translate(0, 0)" d="M -15.01775 14.90408 L 8.964940000000002 -3.217679999999998 C 8.964940000000002 -3.217679999999998 1.8913900000000021 -2.9482099999999978 0.6114200000000025 -10.156489999999998 C 0.6114200000000025 -10.223859999999998 4.4014200000000026 -14.26147 5.114770000000003 -14.904079999999997 C 5.182140000000003 -14.836709999999997 4.912670000000003 -5.472679999999997 14.007230000000003 -6.752659999999997 C 14.141960000000003 -6.617929999999997 15.017740000000003 -0.5548799999999972 15.017740000000003 -0.5548799999999972 z" stroke-linecap="round" />
</g>
<g transform="matrix(1.01 0 0 1 -61.95 70.92)" id="wwB8XZaE36qXPn8ezPyTk"  >
<path style="stroke: rgb(0,0,0); stroke-width: 0; stroke-dasharray: none; stroke-linecap: butt; stroke-dashoffset: 0; stroke-linejoin: miter; stroke-miterlimit: 4; fill: rgb(0,0,0); fill-rule: nonzero; opacity: 1;" vector-effect="non-scaling-stroke"  transform=" translate(0, 0)" d="M -16.33653 9.8297 C -16.33653 9.8297 -5.625159999999999 3.429820000000001 -0.10105000000000075 14.208560000000002 C -0.23578000000000074 14.141190000000002 16.33653 0.19620000000000282 16.33653 0.19620000000000282 C 16.33653 0.19620000000000282 -6.8680699999999995 0.3450100000000028 -10.557310000000001 0.19620000000000282 C -15.307370000000002 -2.333559999999997 -16.33652 -14.208559999999997 -16.33652 -14.208559999999997 z" stroke-linecap="round" />
</g>
<g transform="matrix(0 -2.85 0.61 0 56.88 32.27)" id="_GU7GpyqY5Q5Tvs-SaHqh"  >
<path style="stroke: rgb(0,0,0); stroke-width: 0; stroke-dasharray: none; stroke-linecap: butt; stroke-dashoffset: 0; stroke-linejoin: miter; stroke-miterlimit: 4; fill: rgb(0,0,0); fill-rule: nonzero; opacity: 1;" vector-effect="non-scaling-stroke"  transform=" translate(0, 0)" d="M -9.10792 61.47257 C -9.02843 60.92652 5.6671499999999995 35.90191 5.80631 -8.485970000000002 C 5.88476 -33.510310000000004 2.61041 -48.39425 -0.9855200000000002 -58.0735 L -0.9855200000000002 -58.0735 C -1.1794700000000002 -58.595560000000006 -1.2510200000000002 -59.74289 -1.1476300000000001 -60.67316 C -1.04424 -61.60343 -0.8027900000000001 -61.984930000000006 -0.6005400000000002 -61.53757 C 3.8477099999999997 -51.69859 9.02622 -34.32749 9.10712 -8.485970000000002 C 9.24139 34.400259999999996 -7.562980000000001 64.82345000000001 -9.107919999999998 61.47257 z" stroke-linecap="round" />
</g>
<g transform="matrix(1.51 0 0 1 75.4 30.04)" id="ySBQ6LcsZvYjCJy1ll8d9"  >
<path style="stroke: rgb(0,0,0); stroke-width: 0; stroke-dasharray: none; stroke-linecap: butt; stroke-dashoffset: 0; stroke-linejoin: miter; stroke-miterlimit: 4; fill: rgb(0,0,0); fill-rule: nonzero; opacity: 1;" vector-effect="non-scaling-stroke"  transform=" translate(0, 0)" d="M -11.25566 -18.26229 L 3.902709999999999 -14.30301 L 11.25565 -6.384460000000001 C 11.25565 -6.384460000000001 5.319179999999999 3.6695399999999996 10.29655 18.2623 C 0.33344999999999914 -7.82282 -11.255669999999999 -18.262290000000004 -11.255669999999999 -18.262290000000004 z" stroke-linecap="round" />
</g>
<g transform="matrix(0.71 0 0 0.71 -55.38 16.19)" id="bP0MAMz4eWiNrkuoRn2ub"  >
<path style="stroke: rgb(188,98,107); stroke-width: 0; stroke-dasharray: none; stroke-linecap: butt; stroke-dashoffset: 0; stroke-linejoin: miter; stroke-miterlimit: 4; fill: rgb(0,0,0); fill-rule: nonzero; opacity: 1;" vector-effect="non-scaling-stroke"  transform=" translate(0, 0)" d="M 0 -3.5 C 1.932 -3.5 3.5 -1.932 3.5 0 C 3.5 1.932 1.932 3.5 0 3.5 C -1.932 3.5 -3.5 1.932 -3.5 0 C -3.5 -1.932 -1.932 -3.5 0 -3.5 z" stroke-linecap="round" />
</g>
<g transform="matrix(0.43 0.92 -0.89 0.41 12.9 77.4)" id="t4LOgBzeENzwptThZB4ww"  >
<path style="stroke: rgb(0,0,0); stroke-width: 0; stroke-dasharray: none; stroke-linecap: butt; stroke-dashoffset: 0; stroke-linejoin: miter; stroke-miterlimit: 4; fill: rgb(91,91,91); fill-rule: nonzero; opacity: 1;" vector-effect="non-scaling-stroke"  transform=" translate(0, 0)" d="M -25.49964 -9.08475 C -25.49964 -9.37461 25.499630000000003 -9.08475 25.499630000000003 -9.08475 C 25.499630000000003 -9.08475 14.313580000000004 -2.71493 10.419020000000003 9.21358 C 10.274090000000003 9.21358 8.302640000000004 2.0386200000000008 8.302640000000004 2.0386200000000008 C 8.302640000000004 2.0386200000000008 9.896860000000004 -1.9738799999999994 14.898470000000003 -5.302079999999999 C 15.043400000000004 -5.447009999999999 3.4892400000000023 -7.058319999999999 -23.072539999999996 -6.765909999999999 C -23.265669999999997 -7.738049999999999 -24.697339999999997 -8.18958 -25.499639999999996 -9.08475 z" stroke-linecap="round" />
</g>
<g transform="matrix(1.52 0 0 0.99 63.1 77.02)" id="eE4Hal9XAnTNcDn1HAirx"  >
<path style="stroke: rgb(0,0,0); stroke-width: 0; stroke-dasharray: none; stroke-linecap: butt; stroke-dashoffset: 0; stroke-linejoin: miter; stroke-miterlimit: 4; fill: rgb(91,91,91); fill-rule: nonzero; opacity: 1;" vector-effect="non-scaling-stroke"  transform=" translate(0, 0)" d="M -23.07217 -19.96132 C -23.14941 -20.00141 -6.896650000000001 30.81167 14.11262 0.22465000000000046 C 14.11262 0.22465000000000046 17.71715 6.96135 17.71715 6.96135 C 17.71715 6.96135 8.26345 17.386680000000002 19.07705 19.96135 C 18.97406 19.96135 9.99316 14.4368 23.07246 3.726189999999999 C 22.96947 3.623199999999999 14.627559999999999 5.6829399999999985 16.06937 -7.190390000000001 C 14.83353 -6.057540000000001 1.5158899999999988 31.98402 -23.072160000000004 -19.96132 z" stroke-linecap="round" />
</g>
<g transform="matrix(0.86 0 0 0.86 92.41 93.77)" id="nH4HauPfAsmvRyievuUGA"  >
<path style="stroke: rgb(188,98,107); stroke-width: 0; stroke-dasharray: none; stroke-linecap: butt; stroke-dashoffset: 0; stroke-linejoin: miter; stroke-miterlimit: 4; fill: rgb(91,91,91); fill-rule: nonzero; opacity: 1;" vector-effect="non-scaling-stroke"  transform=" translate(0, 0)" d="M 0 -3.5 C 1.932 -3.5 3.5 -1.932 3.5 0 C 3.5 1.932 1.932 3.5 0 3.5 C -1.932 3.5 -3.5 1.932 -3.5 0 C -3.5 -1.932 -1.932 -3.5 0 -3.5 z" stroke-linecap="round" />
</g>
<g transform="matrix(1.35 0 0 1.01 85.92 32.76)" id="kBbn4CqR-JueUHwtXUsE5"  >
<path style="stroke: rgb(0,0,0); stroke-width: 0; stroke-dasharray: none; stroke-linecap: butt; stroke-dashoffset: 0; stroke-linejoin: miter; stroke-miterlimit: 4; fill: rgb(91,91,91); fill-rule: nonzero; opacity: 1;" vector-effect="non-scaling-stroke"  transform=" translate(0, 0)" d="M -4.14909 -15.64309 L 6.3417699999999995 -4.782530000000001 C 6.3417699999999995 -4.782530000000001 2.285939999999999 -1.973660000000001 7.79611 16.4291 C 6.7829999999999995 14.588129999999998 1.68905 4.372669999999998 3.2981 -4.3281600000000005 C 3.2981 -4.626130000000001 2.8748799999999997 -10.78311 -5.825950000000001 -12.21338 C -5.647170000000001 -12.45176 -8.08244 -12.36274 -7.76806 -16.429100000000002 C -6.212540000000001 -16.190720000000002 -4.14909 -15.643090000000003 -4.14909 -15.643090000000003 z" stroke-linecap="round" />
</g>
<g transform="matrix(0.65 0 0 0.65 86.5 27.49)" id="BC1V8pql9oziuqCyCHuwZ"  >
<path style="stroke: rgb(188,98,107); stroke-width: 0; stroke-dasharray: none; stroke-linecap: butt; stroke-dashoffset: 0; stroke-linejoin: miter; stroke-miterlimit: 4; fill: rgb(91,91,91); fill-rule: nonzero; opacity: 1;" vector-effect="non-scaling-stroke"  transform=" translate(0, 0)" d="M 0 -3.5 C 1.932 -3.5 3.5 -1.932 3.5 0 C 3.5 1.932 1.932 3.5 0 3.5 C -1.932 3.5 -3.5 1.932 -3.5 0 C -3.5 -1.932 -1.932 -3.5 0 -3.5 z" stroke-linecap="round" />
</g>
<g transform="matrix(0.35 0 0 0.35 82.32 24)" id="EY1LWF6rXPINnuXxdZBLg"  >
<path style="stroke: rgb(188,98,107); stroke-width: 0; stroke-dasharray: none; stroke-linecap: butt; stroke-dashoffset: 0; stroke-linejoin: miter; stroke-miterlimit: 4; fill: rgb(91,91,91); fill-rule: nonzero; opacity: 1;" vector-effect="non-scaling-stroke"  transform=" translate(0, 0)" d="M 0 -3.5 C 1.932 -3.5 3.5 -1.932 3.5 0 C 3.5 1.932 1.932 3.5 0 3.5 C -1.932 3.5 -3.5 1.932 -3.5 0 C -3.5 -1.932 -1.932 -3.5 0 -3.5 z" stroke-linecap="round" />
</g>
<g transform="matrix(1 0 0 1 -57.34 35.53)" id="raTz5Tw2b1RIBAGPfORg0"  >
<path style="stroke: rgb(0,0,0); stroke-width: 0; stroke-dasharray: none; stroke-linecap: butt; stroke-dashoffset: 0; stroke-linejoin: miter; stroke-miterlimit: 4; fill: rgb(158,193,193); fill-rule: nonzero; opacity: 1;" vector-effect="non-scaling-stroke"  transform=" translate(0, 0)" d="M -0.72791 -1.86851 L 1.96121 -1.86851 L 1.5161499999999999 1.7386900000000003 L -1.9612200000000002 1.8685100000000003 z" stroke-linecap="round" />
</g>
<g transform="matrix(0 1.02 -1.4 0 -70.32 65.41)" id="Gt5gslNu9u22PthGfk6o9"  >
<path style="stroke: rgb(0,0,0); stroke-width: 0; stroke-dasharray: none; stroke-linecap: butt; stroke-dashoffset: 0; stroke-linejoin: miter; stroke-miterlimit: 4; fill: rgb(91,91,91); fill-rule: nonzero; opacity: 1;" vector-effect="non-scaling-stroke"  transform=" translate(0, 0)" d="M 9.28571 5.95238 L 23.92857 -9.28572 L 8.09524 4.642850000000001 L -23.928569999999997 4.642850000000001 L -23.928569999999997 9.285710000000002 L -22.14286 5.952380000000002 z" stroke-linecap="round" />
</g>
<g transform="matrix(0.35 0 0 0.35 12.9 6.75)" id="6INJ-otS7-2oqJcrvLNLI"  >
<path style="stroke: rgb(188,98,107); stroke-width: 0; stroke-dasharray: none; stroke-linecap: butt; stroke-dashoffset: 0; stroke-linejoin: miter; stroke-miterlimit: 4; fill: rgb(91,91,91); fill-rule: nonzero; opacity: 1;" vector-effect="non-scaling-stroke"  transform=" translate(0, 0)" d="M 0 -3.5 C 1.932 -3.5 3.5 -1.932 3.5 0 C 3.5 1.932 1.932 3.5 0 3.5 C -1.932 3.5 -3.5 1.932 -3.5 0 C -3.5 -1.932 -1.932 -3.5 0 -3.5 z" stroke-linecap="round" />
</g>
</svg>