<?xml version="1.0" encoding="UTF-8" standalone="no" ?>
<!DOCTYPE svg PUBLIC "-//W3C//DTD SVG 1.1//EN" "http://www.w3.org/Graphics/SVG/1.1/DTD/svg11.dtd">
<svg xmlns="http://www.w3.org/2000/svg" xmlns:xlink="http://www.w3.org/1999/xlink" version="1.1" width="25" height="35" viewBox="0 0 25 35" xml:space="preserve">
<desc>Created with Fabric.js 4.6.0</desc>
<defs>
</defs>
<g transform="matrix(1 0 0 1 -57.86 91.51)" id="LD5hxTJyFSIseFaYNMFoE"  >
<path style="stroke: rgb(188,98,107); stroke-width: 0; stroke-dasharray: none; stroke-linecap: butt; stroke-dashoffset: 0; stroke-linejoin: miter; stroke-miterlimit: 4; fill: rgb(0,0,0); fill-rule: nonzero; opacity: 1;" vector-effect="non-scaling-stroke"  transform=" translate(-3.5, -3.5)" d="M 3.5 0 C 5.432 0 7 1.568 7 3.5 C 7 5.432 5.432 7 3.5 7 C 1.568 7 0 5.432 0 3.5 C 0 1.568 1.568 0 3.5 0 z" stroke-linecap="round" />
</g>
<g transform="matrix(1.01 0 0 1 -61.95 70.92)" id="wwB8XZaE36qXPn8ezPyTk"  >
<path style="stroke: rgb(0,0,0); stroke-width: 0; stroke-dasharray: none; stroke-linecap: butt; stroke-dashoffset: 0; stroke-linejoin: miter; stroke-miterlimit: 4; fill: rgb(0,0,0); fill-rule: nonzero; opacity: 1;" vector-effect="non-scaling-stroke"  transform=" translate(0, 0)" d="M -16.33653 9.8297 C -16.33653 9.8297 -5.625159999999999 3.429820000000001 -0.10105000000000075 14.208560000000002 C -0.23578000000000074 14.141190000000002 16.33653 0.19620000000000282 16.33653 0.19620000000000282 C 16.33653 0.19620000000000282 -6.8680699999999995 0.3450100000000028 -10.557310000000001 0.19620000000000282 C -15.307370000000002 -2.333559999999997 -16.33652 -14.208559999999997 -16.33652 -14.208559999999997 z" stroke-linecap="round" />
</g>
<g transform="matrix(0.71 0 0 0.71 -55.38 16.19)" id="bP0MAMz4eWiNrkuoRn2ub"  >
<path style="stroke: rgb(188,98,107); stroke-width: 0; stroke-dasharray: none; stroke-linecap: butt; stroke-dashoffset: 0; stroke-linejoin: miter; stroke-miterlimit: 4; fill: rgb(0,0,0); fill-rule: nonzero; opacity: 1;" vector-effect="non-scaling-stroke"  transform=" translate(0, 0)" d="M 0 -3.5 C 1.932 -3.5 3.5 -1.932 3.5 0 C 3.5 1.932 1.932 3.5 0 3.5 C -1.932 3.5 -3.5 1.932 -3.5 0 C -3.5 -1.932 -1.932 -3.5 0 -3.5 z" stroke-linecap="round" />
</g>
<g transform="matrix(1 0 0 1 -57.34 35.53)" id="raTz5Tw2b1RIBAGPfORg0"  >
<path style="stroke: rgb(0,0,0); stroke-width: 0; stroke-dasharray: none; stroke-linecap: butt; stroke-dashoffset: 0; stroke-linejoin: miter; stroke-miterlimit: 4; fill: rgb(158,193,193); fill-rule: nonzero; opacity: 1;" vector-effect="non-scaling-stroke"  transform=" translate(0, 0)" d="M -0.72791 -1.86851 L 1.96121 -1.86851 L 1.5161499999999999 1.7386900000000003 L -1.9612200000000002 1.8685100000000003 z" stroke-linecap="round" />
</g>
<g transform="matrix(0 1.02 -1.4 0 -70.32 65.41)" id="Gt5gslNu9u22PthGfk6o9"  >
<path style="stroke: rgb(0,0,0); stroke-width: 0; stroke-dasharray: none; stroke-linecap: butt; stroke-dashoffset: 0; stroke-linejoin: miter; stroke-miterlimit: 4; fill: rgb(91,91,91); fill-rule: nonzero; opacity: 1;" vector-effect="non-scaling-stroke"  transform=" translate(0, 0)" d="M 9.28571 5.95238 L 23.92857 -9.28572 L 8.09524 4.642850000000001 L -23.928569999999997 4.642850000000001 L -23.928569999999997 9.285710000000002 L -22.14286 5.952380000000002 z" stroke-linecap="round" />
</g>
<g transform="matrix(0.93 -0.34 0.34 0.94 10.47 17.19)" id="oNzP-XiG0s1uaRRunNthU"  >
<path style="stroke: rgb(0,0,0); stroke-width: 0; stroke-dasharray: none; stroke-linecap: butt; stroke-dashoffset: 0; stroke-linejoin: miter; stroke-miterlimit: 4; fill: rgb(0,0,0); fill-rule: nonzero; opacity: 1;" vector-effect="non-scaling-stroke"  transform=" translate(0, 0)" d="M -15.01775 12.80556 L 8.964940000000002 -5.3161999999999985 C 8.964940000000002 -5.3161999999999985 7.015830000000002 -5.759159999999999 7.138100000000002 -8.057969999999997 C 7.138100000000002 -8.125339999999998 10.928100000000002 -12.162949999999999 11.641450000000003 -12.805559999999996 C 11.708820000000003 -12.738189999999996 10.162590000000002 -9.469159999999997 14.007230000000003 -8.851189999999995 C 14.141960000000003 -8.716459999999996 15.017740000000003 -2.6534099999999956 15.017740000000003 -2.6534099999999956 z" stroke-linecap="round" />
</g>
<g transform="matrix(0.35 0 0 0.35 14.03 10.59)" id="c4avItgSCJBsKgJ9cSWs8"  >
<path style="stroke: rgb(188,98,107); stroke-width: 0; stroke-dasharray: none; stroke-linecap: butt; stroke-dashoffset: 0; stroke-linejoin: miter; stroke-miterlimit: 4; fill: rgb(158,193,193); fill-rule: nonzero; opacity: 1;" vector-effect="non-scaling-stroke"  transform=" translate(0, 0)" d="M 0 -3.5 C 1.932 -3.5 3.5 -1.932 3.5 0 C 3.5 1.932 1.932 3.5 0 3.5 C -1.932 3.5 -3.5 1.932 -3.5 0 C -3.5 -1.932 -1.932 -3.5 0 -3.5 z" stroke-linecap="round" />
</g>
<g transform="matrix(0.27 0 0 0.27 12.18 13.78)" id="8mXua7aidPd3tvxIOxdtj"  >
<path style="stroke: rgb(188,98,107); stroke-width: 0; stroke-dasharray: none; stroke-linecap: butt; stroke-dashoffset: 0; stroke-linejoin: miter; stroke-miterlimit: 4; fill: rgb(158,193,193); fill-rule: nonzero; opacity: 1;" vector-effect="non-scaling-stroke"  transform=" translate(0, 0)" d="M 0 -3.5 C 1.932 -3.5 3.5 -1.932 3.5 0 C 3.5 1.932 1.932 3.5 0 3.5 C -1.932 3.5 -3.5 1.932 -3.5 0 C -3.5 -1.932 -1.932 -3.5 0 -3.5 z" stroke-linecap="round" />
</g>
<g transform="matrix(0.24 0 0 0.24 10.47 16.8)" id="UWGnbpalRIU2vid2CIRMm"  >
<path style="stroke: rgb(188,98,107); stroke-width: 0; stroke-dasharray: none; stroke-linecap: butt; stroke-dashoffset: 0; stroke-linejoin: miter; stroke-miterlimit: 4; fill: rgb(158,193,193); fill-rule: nonzero; opacity: 1;" vector-effect="non-scaling-stroke"  transform=" translate(0, 0)" d="M 0 -3.5 C 1.932 -3.5 3.5 -1.932 3.5 0 C 3.5 1.932 1.932 3.5 0 3.5 C -1.932 3.5 -3.5 1.932 -3.5 0 C -3.5 -1.932 -1.932 -3.5 0 -3.5 z" stroke-linecap="round" />
</g>
<g transform="matrix(0.18 0 0 0.18 9.02 19.51)" id="TLKzHcVFRmvMdPny3hPU1"  >
<path style="stroke: rgb(188,98,107); stroke-width: 0; stroke-dasharray: none; stroke-linecap: butt; stroke-dashoffset: 0; stroke-linejoin: miter; stroke-miterlimit: 4; fill: rgb(158,193,193); fill-rule: nonzero; opacity: 1;" vector-effect="non-scaling-stroke"  transform=" translate(0, 0)" d="M 0 -3.5 C 1.932 -3.5 3.5 -1.932 3.5 0 C 3.5 1.932 1.932 3.5 0 3.5 C -1.932 3.5 -3.5 1.932 -3.5 0 C -3.5 -1.932 -1.932 -3.5 0 -3.5 z" stroke-linecap="round" />
</g>
</svg>